<svg xmlns="http://www.w3.org/2000/svg" style="display: none;"><symbol id="id-card" viewBox="0 0 512 512"><title>id-card</title><g> <g> <path d="M479.388,89.13H32.612C14.63,89.13,0,103.76,0,121.742v268.516c0,17.982,14.63,32.612,32.612,32.612h446.776 c17.982,0,32.612-14.63,32.612-32.612V121.742C512,103.76,497.37,89.13,479.388,89.13z M490.259,390.257 c0,5.994-4.877,10.871-10.871,10.871H32.612c-5.994,0-10.871-4.877-10.871-10.871V121.741c0-5.994,4.877-10.871,10.871-10.871 h446.776c5.994,0,10.871,4.877,10.871,10.871V390.257z"/> </g> </g><g> <g> <path d="M422.107,184.506H305.442c-6.004,0-10.871,4.868-10.871,10.871c0,6.004,4.867,10.871,10.871,10.871h116.665 c6.004,0,10.871-4.867,10.871-10.871C432.978,189.374,428.111,184.506,422.107,184.506z"/> </g> </g><g> <g> <path d="M422.107,245.129H305.442c-6.004,0-10.871,4.867-10.871,10.871c0,6.003,4.867,10.871,10.871,10.871h116.665 c6.004,0,10.871-4.868,10.871-10.871C432.978,249.996,428.111,245.129,422.107,245.129z"/> </g> </g><g> <g> <path d="M422.107,305.752H305.442c-6.004,0-10.871,4.868-10.871,10.871c0,6.003,4.867,10.871,10.871,10.871h116.665 c6.004,0,10.871-4.868,10.871-10.871C432.978,310.62,428.111,305.752,422.107,305.752z"/> </g> </g><g> <g> <path d="M200.747,290.243c-0.22-0.015-20.116,0.814-25.49-20.71c7.261-5.715,13.354-13.656,17.708-23.14 c0.322,0.032,0.644,0.072,0.964,0.072c2.964-0.001,5.834-1.351,7.72-3.774c9.129-11.725,13.876-26.949,13.368-42.868 c-1.056-33.004-24.017-59.022-52.312-59.328c-0.774-0.031-1.463-0.011-2.02,0.009c-0.013,0-0.026,0.001-0.04,0.001 c-6.865-2.975-14.097-4.369-21.55-4.124c-15.932,0.509-30.55,8.401-41.158,22.223c-10.165,13.243-15.446,30.475-14.869,48.527 c0.098,3.054,0.34,5.87,0.728,8.538c1.053,7.686,3.173,15.054,6.301,21.897c1.503,3.289,4.699,5.482,8.311,5.698 c0.983,0.063,1.948-0.038,2.876-0.261c4.427,10.973,11.116,20.104,19.206,26.479c-5.267,21.488-25.28,20.749-25.499,20.763 c-21.389,0.7-38.576,18.305-38.576,39.86v39.614c0,5.404,4.38,9.784,9.784,9.784h163.339c5.404,0,9.784-4.38,9.784-9.784v-39.614 C239.323,308.548,222.135,290.943,200.747,290.243z M103.303,213.828c-0.045-0.299-0.088-0.6-0.13-0.901 c-0.292-2.012-0.471-4.115-0.545-6.426c-0.434-13.542,3.413-26.321,10.833-35.985c6.972-9.085,16.301-14.262,26.262-14.581 c0.329-0.011,8.148-0.63,14.725,3.257c1.377,0.814,3.064,1.057,4.655,1.018c0.201-0.005,3.133-0.153,3.281-0.152 c17.53,0.115,32.37,18.233,33.078,40.388c0.082,2.538-0.02,5.046-0.296,7.499c-6.475-11.114-16.093-19.72-27.539-24.533 c-2.46-1.033-5.236-1.018-7.684,0.043c-2.449,1.062-4.357,3.079-5.283,5.582c-0.755,2.042-1.673,4.032-2.726,5.917 c-2.569,4.594-7.825,7.303-13.716,7.118c-1.172-0.04-2.356-0.042-3.521-0.005c-5.733,0.184-11.324,1.277-16.657,3.264 C112.713,207.343,107.762,210.199,103.303,213.828z M116.938,228.029c2.479-1.832,5.203-3.187,7.976-4.375 c5.056-2.168,11.888-2.05,12.627-2.024c12.603,0.428,24.108-5.469,30.51-15.515c4.992,3.825,9.115,8.977,11.991,15.082 c-3.03,21.957-16.695,38.661-32.201,38.661C134.007,259.858,121.591,246.773,116.938,228.029z M138.437,278.323 c3.062,0.722,6.205,1.102,9.404,1.102c3.229,0,6.391-0.383,9.463-1.099c3.153,10.068,9.776,18.612,18.454,24.244 c-4.174,11.486-15.217,19.539-27.888,19.539s-23.714-8.053-27.889-19.54C128.661,296.936,135.284,288.392,138.437,278.323z M75.984,359.934v-29.83c0-11.209,9.119-20.327,20.328-20.327c0.224,0,3.793-0.205,5.322-0.411 c6.966,19.002,25.257,32.311,46.235,32.311c20.978,0,39.269-13.309,46.235-32.311c1.531,0.206,5.097,0.411,5.321,0.411 c11.21,0,20.328,9.119,20.328,20.327v29.83H75.984z"/> </g> </g></symbol><symbol id="bus" viewBox="0 0 410.52 410.52"><title>bus</title><path d="M98.644,275.387c-11.369,0-20.618,9.249-20.618,20.618c0,11.369,9.25,20.618,20.618,20.618s20.618-9.249,20.618-20.618 C119.262,284.636,110.012,275.387,98.644,275.387z M98.644,301.623c-3.098,0-5.618-2.521-5.618-5.618s2.521-5.618,5.618-5.618 s5.618,2.52,5.618,5.618S101.741,301.623,98.644,301.623z"/><path d="M311.876,275.387c-11.369,0-20.618,9.249-20.618,20.618c0,11.369,9.25,20.618,20.618,20.618s20.618-9.249,20.618-20.618 C332.495,284.636,323.245,275.387,311.876,275.387z M311.876,301.623c-3.098,0-5.618-2.521-5.618-5.618s2.521-5.618,5.618-5.618 s5.618,2.52,5.618,5.618S314.974,301.623,311.876,301.623z"/><path d="M401,259.826v-70.374v-76.644c0-23.871-19.421-43.292-43.292-43.292H76.773c-37.083,0-67.253,30.17-67.253,67.253v123.056 C3.744,264.164,0,271.071,0,278.836v0.92c0,13.096,10.654,23.75,23.75,23.75h30.533c3.583,21.253,22.105,37.497,44.361,37.497 s40.778-16.244,44.361-37.497h124.511c3.583,21.253,22.105,37.497,44.361,37.497s40.778-16.244,44.361-37.497h30.533 c13.096,0,23.75-10.654,23.75-23.75v-0.92C410.52,271.071,406.776,264.164,401,259.826z M386,181.952h-20.583 c-1.053,0-1.91-0.856-1.91-1.91v-57.824c0-1.053,0.856-1.91,1.91-1.91H386V181.952z M15,279.756v-0.92c0-4.83,3.925-8.76,8.75-8.76 h38.151c-3.817,5.393-6.477,11.655-7.619,18.43H23.75C18.925,288.506,15,284.581,15,279.756z M98.644,326.003 c-16.541,0-29.998-13.458-29.998-29.999s13.457-29.998,29.998-29.998s29.998,13.457,29.998,29.998S115.185,326.003,98.644,326.003z M267.515,288.506h-124.51c-3.582-21.254-22.105-37.5-44.361-37.5c-6.657,0-12.974,1.464-18.665,4.07H24.52V136.77 c0-28.813,23.441-52.253,52.253-52.253h280.935c13.003,0,23.979,8.821,27.275,20.792h-19.567c-9.324,0-16.91,7.585-16.91,16.91 v57.824c0,9.324,7.585,16.91,16.91,16.91H386v58.125h-55.459c-5.69-2.605-12.008-4.07-18.665-4.07 C289.62,251.007,271.097,267.253,267.515,288.506z M311.876,326.003c-16.541,0-29.998-13.458-29.998-29.999 s13.457-29.998,29.998-29.998s29.998,13.457,29.998,29.998S328.417,326.003,311.876,326.003z M395.52,279.756 c0,4.825-3.925,8.75-8.75,8.75h-30.532c-1.142-6.775-3.802-13.037-7.619-18.43h38.151c4.825,0,8.75,3.93,8.75,8.76V279.756z"/><path d="M326.377,180.042v-57.824c0-9.324-7.585-16.91-16.91-16.91H78.542c-19.952,0-36.184,16.232-36.184,36.184v38.55 c0,9.324,7.585,16.91,16.91,16.91h250.2C318.792,196.952,326.377,189.366,326.377,180.042z M191.868,120.308h58.961v61.644h-58.961 V120.308z M176.868,181.952h-58.96v-61.644h58.96V181.952z M57.358,180.042v-38.55c0-11.681,9.503-21.184,21.184-21.184h24.366 v61.644h-43.64C58.214,181.952,57.358,181.095,57.358,180.042z M311.377,180.042c0,1.053-0.856,1.91-1.91,1.91h-43.639v-61.644 h43.639c1.053,0,1.91,0.856,1.91,1.91V180.042z"/><path d="M369.537,243.413c4.142,0,7.5-3.358,7.5-7.5v-6.667c0-4.142-3.358-7.5-7.5-7.5s-7.5,3.358-7.5,7.5v6.667 C362.037,240.055,365.395,243.413,369.537,243.413z"/></symbol><symbol id="truck" viewBox="0 0 511.999 511.999"><title>truck</title><g> <g> <path d="M95.758,344.692h-0.081c-4.142,0-7.459,3.358-7.459,7.5c0,4.142,3.398,7.5,7.54,7.5c4.142,0,7.5-3.358,7.5-7.5 C103.258,348.05,99.9,344.692,95.758,344.692z"/> </g> </g><g> <g> <path d="M159.887,344.692h-0.08c-4.142,0-7.46,3.358-7.46,7.5c0,4.142,3.398,7.5,7.54,7.5c4.142,0,7.5-3.358,7.5-7.5 C167.387,348.05,164.029,344.692,159.887,344.692z"/> </g> </g><g> <g> <path d="M424.419,344.692h-0.08c-4.142,0-7.46,3.358-7.46,7.5c0,4.142,3.398,7.5,7.54,7.5c4.142,0,7.5-3.358,7.5-7.5 C431.919,348.05,428.561,344.692,424.419,344.692z"/> </g> </g><g> <g> <path d="M505.107,254.016l-10.084-10.084l-20.315-60.946c3.031-0.963,5.228-3.798,5.228-7.147c0-4.142-3.358-7.5-7.5-7.5h-72.661 v-32.578c0-8.556-6.96-15.516-15.516-15.516H15.516C6.96,120.245,0,127.206,0,135.761v176.354c0,8.556,6.96,15.516,15.516,15.516 h8.532v16.544c0,8.556,6.96,15.516,15.516,15.516h17.271c3.516,18.24,19.591,32.064,38.842,32.064 c13.182,0,24.871-6.486,32.064-16.428c7.194,9.942,18.883,16.428,32.065,16.428c19.251,0,35.327-13.824,38.842-32.064h186.848 c3.516,18.24,19.591,32.064,38.842,32.064c21.816,0,39.564-17.749,39.564-39.564c0-0.172-0.011-0.341-0.013-0.512h32.594 c8.556,0,15.516-6.96,15.516-15.516v-65.508C512,264.37,509.552,258.461,505.107,254.016z M56.835,344.692H39.564 c-0.285,0-0.516-0.231-0.516-0.516v-16.544h25.645C60.813,332.518,58.06,338.334,56.835,344.692z M95.677,376.757 c-13.545,0-24.564-11.02-24.564-24.564c0-13.493,10.937-24.477,24.411-24.561h0.308c13.474,0.083,24.411,11.067,24.411,24.561 C120.242,365.737,109.222,376.757,95.677,376.757z M159.807,376.757c-13.545,0-24.565-11.02-24.565-24.564 c0-13.493,10.937-24.477,24.411-24.561h0.308c13.474,0.083,24.411,11.067,24.411,24.561 C184.371,365.737,173.352,376.757,159.807,376.757z M385.497,344.692H198.649c-1.225-6.358-3.978-12.175-7.859-17.061h145.371 c4.142,0,7.5-3.358,7.5-7.5c0-4.142-3.358-7.5-7.5-7.5H15.516c-0.285,0-0.516-0.231-0.516-0.516V135.761 c0-0.285,0.231-0.516,0.516-0.516h368.742c0.285,0,0.516,0.231,0.516,0.516v176.871h-16.545c-4.142,0-7.5,3.358-7.5,7.5 c0,4.142,3.358,7.5,7.5,7.5h25.126C389.474,332.518,386.722,338.334,385.497,344.692z M480.734,248.499h-48.379 c-0.285,0-0.516-0.231-0.516-0.516v-32.581h37.863L480.734,248.499z M424.339,376.757c-13.545,0-24.564-11.02-24.564-24.564 c0-13.493,10.937-24.477,24.411-24.561h0.154c0.017,0,0.034-0.002,0.052-0.003c13.521,0.028,24.513,11.036,24.513,24.563 C448.903,365.737,437.884,376.757,424.339,376.757z M497,336.165c0,0.285-0.231,0.516-0.516,0.516h-35.752 c-6.045-14.127-20.08-24.052-36.393-24.052c-0.052,0-0.102,0.004-0.154,0.004h-24.41V183.858v-0.004 c0-0.285,0.231-0.516,0.516-0.516h58.723l5.688,17.064h-40.363c-4.142,0-7.5,3.358-7.5,7.5v40.081 c0,8.556,6.96,15.516,15.516,15.516h61.022l1.124,1.124c1.611,1.612,2.499,3.754,2.499,6.033v17.928h-8.532 c-4.142,0-7.5,3.358-7.5,7.5c0,4.142,3.358,7.5,7.5,7.5H497V336.165z"/> </g> </g><g> <g> <path d="M360.209,280.567H39.564c-4.142,0-7.5,3.358-7.5,7.5c0,4.142,3.358,7.5,7.5,7.5h320.645c4.142,0,7.5-3.358,7.5-7.5 C367.709,283.925,364.351,280.567,360.209,280.567z"/> </g> </g></symbol><symbol id="shipped" viewBox="0 0 512 512"><title>shipped</title><g> <g> <path d="M476.158,231.363l-13.259-53.035c3.625-0.77,6.345-3.986,6.345-7.839v-8.551c0-18.566-15.105-33.67-33.67-33.67h-60.392 V110.63c0-9.136-7.432-16.568-16.568-16.568H50.772c-9.136,0-16.568,7.432-16.568,16.568V256c0,4.427,3.589,8.017,8.017,8.017 c4.427,0,8.017-3.589,8.017-8.017V110.63c0-0.295,0.239-0.534,0.534-0.534h307.841c0.295,0,0.534,0.239,0.534,0.534v145.372 c0,4.427,3.589,8.017,8.017,8.017c4.427,0,8.017-3.589,8.017-8.017v-9.088h94.569c0.008,0,0.014,0.002,0.021,0.002 c0.008,0,0.015-0.001,0.022-0.001c11.637,0.008,21.518,7.646,24.912,18.171h-24.928c-4.427,0-8.017,3.589-8.017,8.017v17.102 c0,13.851,11.268,25.119,25.119,25.119h9.086v35.273h-20.962c-6.886-19.883-25.787-34.205-47.982-34.205 s-41.097,14.322-47.982,34.205h-3.86v-60.393c0-4.427-3.589-8.017-8.017-8.017c-4.427,0-8.017,3.589-8.017,8.017v60.391H192.817 c-6.886-19.883-25.787-34.205-47.982-34.205s-41.097,14.322-47.982,34.205H50.772c-0.295,0-0.534-0.239-0.534-0.534v-17.637 h34.739c4.427,0,8.017-3.589,8.017-8.017s-3.589-8.017-8.017-8.017H8.017c-4.427,0-8.017,3.589-8.017,8.017 s3.589,8.017,8.017,8.017h26.188v17.637c0,9.136,7.432,16.568,16.568,16.568h43.304c-0.002,0.178-0.014,0.355-0.014,0.534 c0,27.996,22.777,50.772,50.772,50.772s50.772-22.776,50.772-50.772c0-0.18-0.012-0.356-0.014-0.534h180.67 c-0.002,0.178-0.014,0.355-0.014,0.534c0,27.996,22.777,50.772,50.772,50.772c27.995,0,50.772-22.776,50.772-50.772 c0-0.18-0.012-0.356-0.014-0.534h26.203c4.427,0,8.017-3.589,8.017-8.017v-85.511C512,251.989,496.423,234.448,476.158,231.363z M375.182,144.301h60.392c9.725,0,17.637,7.912,17.637,17.637v0.534h-78.029V144.301z M375.182,230.881v-52.376h71.235 l13.094,52.376H375.182z M144.835,401.904c-19.155,0-34.739-15.583-34.739-34.739s15.584-34.739,34.739-34.739 c19.155,0,34.739,15.583,34.739,34.739S163.99,401.904,144.835,401.904z M427.023,401.904c-19.155,0-34.739-15.583-34.739-34.739 s15.584-34.739,34.739-34.739c19.155,0,34.739,15.583,34.739,34.739S446.178,401.904,427.023,401.904z M495.967,299.29h-9.086 c-5.01,0-9.086-4.076-9.086-9.086v-9.086h18.171V299.29z"/> </g> </g><g> <g> <path d="M144.835,350.597c-9.136,0-16.568,7.432-16.568,16.568c0,9.136,7.432,16.568,16.568,16.568 c9.136,0,16.568-7.432,16.568-16.568C161.403,358.029,153.971,350.597,144.835,350.597z"/> </g> </g><g> <g> <path d="M427.023,350.597c-9.136,0-16.568,7.432-16.568,16.568c0,9.136,7.432,16.568,16.568,16.568 c9.136,0,16.568-7.432,16.568-16.568C443.591,358.029,436.159,350.597,427.023,350.597z"/> </g> </g><g> <g> <path d="M332.96,316.393H213.244c-4.427,0-8.017,3.589-8.017,8.017s3.589,8.017,8.017,8.017H332.96 c4.427,0,8.017-3.589,8.017-8.017S337.388,316.393,332.96,316.393z"/> </g> </g><g> <g> <path d="M127.733,282.188H25.119c-4.427,0-8.017,3.589-8.017,8.017s3.589,8.017,8.017,8.017h102.614 c4.427,0,8.017-3.589,8.017-8.017S132.16,282.188,127.733,282.188z"/> </g> </g><g> <g> <path d="M278.771,173.37c-3.13-3.13-8.207-3.13-11.337,0.001l-71.292,71.291l-37.087-37.087c-3.131-3.131-8.207-3.131-11.337,0 c-3.131,3.131-3.131,8.206,0,11.337l42.756,42.756c1.565,1.566,3.617,2.348,5.668,2.348s4.104-0.782,5.668-2.348l76.96-76.96 C281.901,181.576,281.901,176.501,278.771,173.37z"/> </g> </g></symbol><symbol id="transport-3" viewBox="0 0 481.264 481.264"><title>transport-3</title><g> <g> <path d="M481.264,136.628v-80c-0.026-22.08-17.92-39.974-40-40h-240c-22.08,0.026-39.974,17.92-40,40v72.408 c-92.637,3.647-164.778,81.7-161.131,174.337s81.7,164.778,174.337,161.131c5.542-0.218,11.069-0.711,16.563-1.476 c3.323,0.99,6.765,1.528,10.232,1.6h240c22.08-0.026,39.974-17.92,40-40v-80c-0.026-22.08-17.92-39.974-40-40h-0.208 c5.294-6.883,8.179-15.316,8.208-24v-80c-0.029-8.684-2.914-17.117-8.208-24h0.208 C463.344,176.601,481.237,158.708,481.264,136.628z M201.264,32.628h240c13.255,0,24,10.745,24,24h-288 C177.264,43.373,188.009,32.628,201.264,32.628z M177.264,72.628h288v16h-288V72.628z M177.264,104.628h288v16h-288V104.628z M231.504,435.156c-2.475,1.104-4.979,2.141-7.512,3.112c-1.152,0.448-2.328,0.864-3.504,1.288 c-78.977,28.34-165.974-12.71-194.314-91.686c-28.34-78.977,12.71-165.974,91.686-194.314c16.492-5.918,33.882-8.938,51.404-8.928 c4.8,0,9.472,0.28,14.128,0.712c1.488,0.144,2.952,0.36,4.432,0.536c3.2,0.392,6.336,0.864,9.456,1.448 c1.68,0.32,3.36,0.656,5.024,1.024c2.872,0.648,5.704,1.4,8.52,2.2c1.696,0.488,3.416,0.928,5.096,1.48 c2.728,0.88,5.384,1.912,8,2.944c4.112,1.6,8.16,3.376,12.136,5.344c1.176,0.584,2.4,1.104,3.544,1.712 c2.84,1.496,5.6,3.152,8.368,4.8c0.912,0.56,1.832,1.096,2.736,1.664c2.776,1.784,5.504,3.68,8.192,5.648 c0.8,0.576,1.552,1.152,2.32,1.736c2.768,2.133,5.453,4.328,8.056,6.584c1,0.872,1.976,1.776,2.944,2.672 c2.224,2.04,4.4,4.128,6.488,6.288c1.416,1.472,2.768,3.008,4.128,4.544c1.6,1.776,3.2,3.544,4.68,5.392 c1.752,2.176,3.384,4.44,5.024,6.712c1.04,1.44,2.136,2.84,3.128,4.312c0.632,0.944,1.16,1.96,1.768,2.92 c2.4,3.744,4.664,7.584,6.736,11.624c0.336,0.656,0.624,1.336,0.96,1.992c2.232,4.544,4.312,9.216,6.144,14.064 c0.128,0.336,0.248,0.68,0.376,1.024c1.704,4.624,3.2,9.344,4.456,14.136l0.112,0.432c1.291,5.011,2.327,10.084,3.104,15.2v0.152 c0.544,3.616,0.936,6.96,1.24,10.184c0.336,4.12,0.632,8.248,0.632,12.448c-0.012,5.098-0.279,10.193-0.8,15.264 c0,0.448-0.128,0.896-0.176,1.344c-0.424,3.856-1.04,7.64-1.744,11.4c-0.312,1.6-0.616,3.2-0.976,4.8 c-0.608,2.744-1.344,5.44-2.096,8.128c-0.896,3.168-1.899,6.317-3.008,9.448c-0.456,1.288-0.92,2.56-1.408,3.832 c-1.72,4.496-3.672,8.904-5.816,13.216c-0.32,0.656-0.616,1.328-0.944,1.976c-2.475,4.824-5.204,9.513-8.176,14.048l-0.056,0.096 c-1.08,1.6-2.248,3.2-3.376,4.8c-1.376,1.904-2.768,3.8-4.224,5.6c-1.168,1.488-2.352,2.96-3.576,4.4 c-2.192,2.568-4.448,5.064-6.8,7.48c-1.16,1.192-2.4,2.352-3.568,3.512c-2.176,2.096-4.411,4.128-6.704,6.096 c-1.448,1.24-2.928,2.4-4.416,3.616c-1.992,1.6-4,3.08-6.096,4.56c-1.528,1.088-3.048,2.208-4.616,3.248 c-2.664,1.752-5.416,3.384-8.192,4.976c-2.624,1.504-5.304,2.896-8,4.232C234.864,433.564,233.192,434.396,231.504,435.156z M336.584,283.188v-0.032c-0.072-0.848-0.048-1.72-0.128-2.56h96.808c0,13.255-10.745,24-24,24h-72.192 c0.128-2.688,0.192-5.36,0.192-8C337.264,292.3,337.008,287.828,336.584,283.188z M334.12,264.628 c-1.067-5.435-2.376-10.768-3.928-16h103.072v16H334.12z M324.52,232.628c-2.237-5.464-4.763-10.805-7.568-16h116.312v16H324.52z M307.056,200.628c-1.264-1.8-2.704-3.464-4-5.216c-1.672-2.2-3.296-4.448-5.072-6.568c-1.2-1.432-2.52-2.76-3.768-4.144 c-2.4-2.696-4.8-5.384-7.408-7.92l-0.168-0.152h122.624c13.255,0,24,10.745,24,24H307.056z M441.264,448.628H240.608 c1.536-0.72,3.024-1.552,4.544-2.32c1.76-0.896,3.552-1.728,5.272-2.688c3.736-2.056,7.368-4.304,10.944-6.656 c1.464-0.96,2.88-1.968,4.304-2.968c2.667-1.877,5.285-3.837,7.856-5.88c1.184-0.944,2.4-1.848,3.544-2.816 c0.28-0.232,0.576-0.44,0.848-0.672h187.344C465.264,437.882,454.519,448.628,441.264,448.628z M465.264,408.628H294.336 c0.888-0.992,1.712-2.048,2.576-3.064c1.04-1.216,2.088-2.4,3.096-3.672c2.4-3.016,4.8-6.088,6.984-9.264h158.272V408.628z M465.264,376.628H316.96c2.805-5.195,5.331-10.536,7.568-16h140.736V376.628z M441.264,320.62v0.008c13.255,0,24,10.745,24,24 H330.192c0.232-0.8,0.392-1.6,0.616-2.4c0.96-3.376,1.864-6.752,2.616-10.152c0.384-1.792,0.672-3.616,1-5.432 c0.368-2.008,0.8-4,1.112-6.024H441.264z M267.608,160.628c-0.352-0.256-0.728-0.472-1.08-0.728 c-2.437-1.733-4.923-3.403-7.456-5.008c-1.544-0.984-3.12-1.92-4.696-2.856c-2.352-1.392-4.688-2.8-7.12-4.072 c-3.792-2.011-7.643-3.877-11.552-5.6c-1.6-0.68-3.2-1.256-4.8-1.888c-3.072-1.224-6.168-2.4-9.304-3.416 c-0.424-0.136-0.8-0.32-1.256-0.456h244.92c0.013,13.255-10.721,24.011-23.976,24.024c-0.008,0-0.016,0-0.024,0H267.608z"/> </g> </g><g> <g> <path d="M290.584,256.172V256.1c-0.8-2.352-1.6-4.576-2.488-6.752c-0.648-1.6-1.328-3.2-2.04-4.8 c-0.112-0.248-0.2-0.488-0.304-0.728c-0.272-0.6-0.6-1.16-0.888-1.736c-1.424-3.024-2.936-5.992-4.584-8.872 c-0.152-0.264-0.248-0.496-0.416-0.8c-0.28-0.48-0.648-0.952-0.936-1.44c-1.712-2.848-3.496-5.6-5.416-8.336 c-0.2-0.28-0.36-0.584-0.56-0.864c-0.392-0.536-0.848-1.016-1.248-1.544c-1.928-2.592-3.936-5.112-6.056-7.544 c-0.24-0.28-0.456-0.6-0.696-0.872c-0.096-0.112-0.232-0.16-0.336-0.264c-18.363-20.68-42.935-34.85-70.032-40.384 c-2.4-0.48-4.616-0.712-6.896-1.04c-1.8-0.264-3.568-0.64-5.392-0.8c-0.928-0.096-1.864-0.064-2.792-0.136 c-3.416-0.312-6.8-0.56-10.24-0.56s-6.824,0.248-10.192,0.52c-0.928,0.072-1.864,0-2.792,0.136c-1.72,0.176-3.376,0.528-5.072,0.8 c-2.272,0.328-4.464,0.568-6.888,1.048h-0.048c-27.363,5.51-52.172,19.822-70.64,40.752c-0.08,0.08-0.184,0.12-0.256,0.2 c-0.184,0.208-0.336,0.432-0.512,0.64c-2.144,2.456-4.168,5.008-6.12,7.624c-0.368,0.496-0.8,0.968-1.168,1.464 c-0.184,0.248-0.336,0.536-0.512,0.8c-1.976,2.768-3.808,5.6-5.6,8.552c-0.304,0.504-0.656,0.952-0.952,1.464 c-0.184,0.32-0.352,0.664-0.536,0.984c-0.8,1.344-1.504,2.688-2.224,4.064c-1.08,2.072-2.136,4.208-3.16,6.448 c-0.08,0.184-0.136,0.376-0.216,0.56c-1.536,3.44-2.896,6.96-4.128,10.552c-0.104,0.304-0.248,0.592-0.352,0.904v0.104 c-8.837,26.195-8.837,54.565,0,80.76c0,0.048,0,0.096,0,0.144c0.752,2.264,1.6,4.576,2.576,6.928 c0.632,1.6,1.288,3.136,1.984,4.68c0.112,0.248,0.192,0.48,0.304,0.728c0.192,0.408,0.448,0.8,0.64,1.232 c1.52,3.2,3.136,6.4,4.904,9.496c0.128,0.216,0.216,0.432,0.344,0.656c0.28,0.48,0.64,0.944,0.92,1.424 c1.728,2.872,3.528,5.68,5.464,8.4c0.192,0.264,0.336,0.544,0.528,0.8c0.368,0.504,0.8,0.968,1.176,1.464 c1.952,2.616,4,5.16,6.104,7.616c0.256,0.288,0.464,0.608,0.72,0.896c0.104,0.112,0.24,0.16,0.344,0.272 c18.364,20.672,42.933,34.835,70.024,40.368c2.4,0.48,4.616,0.712,6.896,1.04c1.8,0.264,3.568,0.64,5.392,0.8 c4.304,0.432,8.672,0.656,12.984,0.656s8.68-0.224,12.976-0.656l0.288-0.04c3.92-0.4,7.848-0.992,12.352-1.88 c27.006-5.557,51.49-19.698,69.8-40.312c0.104-0.104,0.24-0.152,0.344-0.264c0.256-0.288,0.464-0.608,0.712-0.896 c2.152-2.464,4.176-5.016,6.128-7.64c0.368-0.496,0.8-0.952,1.168-1.456c0.184-0.248,0.336-0.536,0.512-0.8 c1.968-2.752,3.784-5.6,5.528-8.504c0.312-0.512,0.672-0.976,0.976-1.496c0.136-0.24,0.248-0.496,0.384-0.736 c1.296-2.264,2.48-4.592,3.64-6.936c0.632-1.2,1.256-2.4,1.904-3.84c0.088-0.192,0.136-0.376,0.224-0.56 c1.48-3.328,2.792-6.736,4-10.2c0.144-0.424,0.36-0.856,0.496-1.272v-0.144C299.466,310.76,299.449,282.373,290.584,256.172z M201.264,189.348c16.76,5.038,32.105,13.938,44.8,25.984l-44.8,25.872V189.348z M137.264,189.348v51.856l-44.8-25.872 C105.159,203.285,120.503,194.385,137.264,189.348z M60.408,322.532c-4.192-17.012-4.192-34.788,0-51.8l44.856,25.896 L60.408,322.532z M137.264,403.908c-16.76-5.038-32.105-13.937-44.8-25.984l44.8-25.872V403.908z M201.264,403.908v-51.856 l44.8,25.872C233.369,389.97,218.024,398.87,201.264,403.908z M273.12,338.364c-0.536,1.312-1.12,2.648-1.728,4 c-0.208,0.464-0.448,0.904-0.664,1.36c-0.608,1.269-1.245,2.52-1.912,3.752l-1.648,3.2c-0.24,0.512-0.544,1.072-0.864,1.656 c-0.32,0.584-0.608,0.992-0.912,1.496c-1.544,2.6-3.2,5.184-5.008,7.712c-1.048,1.464-2.12,2.912-3.24,4.328l-59.88-34.6 c-3.826-2.209-8.719-0.898-10.928,2.928c-0.708,1.226-1.077,2.617-1.072,4.032v69.12c-1.456,0.216-2.88,0.52-4.36,0.672h-0.264 c-7.568,0.76-15.192,0.76-22.76,0h-0.232c-1.48-0.152-2.92-0.456-4.384-0.672v-69.12c0-4.418-3.582-8-8-8 c-1.404,0-2.784,0.37-4,1.072l-59.88,34.576c-1.088-1.376-2.136-2.792-3.2-4.224c-1.864-2.6-3.6-5.296-5.272-8.112 c-0.256-0.432-0.528-0.8-0.8-1.272c-1.6-2.752-3.032-5.6-4.448-8.64c-0.248-0.528-0.528-1.04-0.8-1.6 c-0.533-1.216-1.051-2.429-1.552-3.64l-0.08-0.224l60.032-34.608c3.826-2.209,5.137-7.102,2.928-10.928 c-0.702-1.216-1.712-2.226-2.928-2.928l-59.928-34.6v-0.056c0.536-1.344,1.12-2.696,1.728-4.064c0.232-0.504,0.488-1,0.728-1.504 c1.328-2.84,2.776-5.68,4.424-8.56c0.288-0.496,0.6-0.968,0.888-1.456c1.6-2.616,3.2-5.208,5.04-7.744 c1.04-1.456,2.104-2.896,3.2-4.296l59.92,34.568c3.826,2.209,8.719,0.898,10.928-2.928c0.708-1.226,1.077-2.617,1.072-4.032 v-69.12c1.448-0.208,2.872-0.512,4.344-0.664l0.28-0.04c7.568-0.76,15.192-0.76,22.76,0h0.232c1.48,0.152,2.92,0.456,4.384,0.672 v69.152c0,4.418,3.582,8,8,8c1.404,0,2.784-0.37,4-1.072l59.888-34.568c1.067,1.376,2.117,2.781,3.152,4.216 c1.856,2.584,3.592,5.288,5.264,8.104c0.264,0.448,0.552,0.88,0.8,1.328s0.544,1.016,0.8,1.536l1.6,3.144 c0.376,0.696,0.752,1.4,1.136,2.136c0.536,1.104,1.104,2.2,1.6,3.328c0.552,1.256,1.096,2.52,1.6,3.856l-59.84,34.664 c-3.826,2.209-5.137,7.102-2.928,10.928c0.702,1.216,1.712,2.226,2.928,2.928l37.24,21.504l22.688,13.096L273.12,338.364z M278.12,322.524l-44.856-25.896l44.856-25.896C282.312,287.741,282.312,305.514,278.12,322.524z"/> </g> </g><g> <g> <path d="M169.264,272.628c-13.255,0-24,10.745-24,24s10.745,24,24,24s24-10.745,24-24S182.519,272.628,169.264,272.628z M169.264,304.628c-4.418,0-8-3.582-8-8s3.582-8,8-8s8,3.582,8,8S173.682,304.628,169.264,304.628z"/> </g> </g></symbol><symbol id="tractor" viewBox="0 0 511 511"><title>tractor</title><path d="M203.608,284.629c-0.179-0.227-0.37-0.448-0.579-0.657c-0.209-0.21-0.431-0.4-0.657-0.579 C185.13,266.461,161.516,256,135.5,256s-49.63,10.461-66.871,27.392c-0.227,0.179-0.448,0.37-0.657,0.579 c-0.209,0.209-0.4,0.43-0.579,0.657C50.461,301.87,40,325.484,40,351.5s10.461,49.63,27.392,66.871 c0.179,0.227,0.37,0.448,0.579,0.657c0.209,0.21,0.431,0.4,0.657,0.58C85.87,436.539,109.484,447,135.5,447 c26.015,0,49.63-10.461,66.871-27.392c0.227-0.18,0.448-0.37,0.657-0.58c0.209-0.209,0.4-0.431,0.579-0.657 C220.539,401.13,231,377.516,231,351.5S220.539,301.87,203.608,284.629z M207.5,359h8.138 c-1.539,16.574-8.113,31.707-18.188,43.843l-5.735-5.735c-2.929-2.929-7.678-2.929-10.606,0c-2.929,2.929-2.929,7.678,0,10.607 l5.735,5.735c-12.136,10.076-27.27,16.65-43.843,18.189V423.5c0-4.142-3.358-7.5-7.5-7.5s-7.5,3.358-7.5,7.5v8.138 c-16.574-1.539-31.707-8.113-43.843-18.189l5.735-5.735c2.929-2.929,2.929-7.678,0-10.607c-2.928-2.929-7.677-2.929-10.606,0 l-5.735,5.735C63.475,390.707,56.901,375.574,55.362,359H63.5c4.142,0,7.5-3.358,7.5-7.5s-3.358-7.5-7.5-7.5h-8.138 c1.539-16.574,8.113-31.707,18.188-43.843l5.735,5.735c1.464,1.464,3.384,2.197,5.303,2.197s3.839-0.732,5.303-2.197 c2.929-2.929,2.929-7.678,0-10.607l-5.735-5.735c12.136-10.076,27.27-16.65,43.843-18.189v8.138c0,4.142,3.358,7.5,7.5,7.5 s7.5-3.358,7.5-7.5v-8.138c16.574,1.539,31.707,8.113,43.843,18.189l-5.735,5.735c-2.929,2.929-2.929,7.678,0,10.607 c1.464,1.465,3.384,2.197,5.303,2.197c1.919,0,3.839-0.732,5.303-2.197l5.735-5.735c10.075,12.136,16.649,27.27,18.188,43.843 H207.5c-4.142,0-7.5,3.358-7.5,7.5S203.358,359,207.5,359z"/><path d="M169.19,328.659c-3.797,1.655-5.534,6.075-3.879,9.872c1.784,4.094,2.689,8.458,2.689,12.969 c0,17.921-14.58,32.5-32.5,32.5S103,369.421,103,351.5s14.58-32.5,32.5-32.5c4.51,0,8.873,0.904,12.966,2.688 c3.798,1.654,8.217-0.083,9.872-3.881s-0.083-8.217-3.88-9.871C148.462,305.324,142.084,304,135.5,304 c-26.191,0-47.5,21.308-47.5,47.5s21.309,47.5,47.5,47.5s47.5-21.308,47.5-47.5c0-6.586-1.325-12.966-3.938-18.962 C177.407,328.741,172.989,327.004,169.19,328.659z"/><path d="M135.5,336c-8.547,0-15.5,6.953-15.5,15.5s6.953,15.5,15.5,15.5s15.5-6.953,15.5-15.5S144.047,336,135.5,336z M135.5,352 c-0.276,0-0.5-0.224-0.5-0.5s0.224-0.5,0.5-0.5s0.5,0.224,0.5,0.5S135.776,352,135.5,352z"/><path d="M455.5,416c-4.142,0-7.5,3.358-7.5,7.5c0,9.098-7.402,16.5-16.5,16.5s-16.5-7.402-16.5-16.5s7.402-16.5,16.5-16.5 c4.142,0,7.5-3.358,7.5-7.5s-3.358-7.5-7.5-7.5c-17.369,0-31.5,14.131-31.5,31.5s14.131,31.5,31.5,31.5s31.5-14.131,31.5-31.5 C463,419.358,459.642,416,455.5,416z"/><path d="M495,329.234v-55.709c0-27.735-22.013-51.389-51.279-55.031l-53.232-6.086l-31.284-137.65 c-1.264-5.562,0.389-11.291,4.422-15.324l15.903-15.904c2.929-2.929,2.929-7.678,0-10.607c-2.929-2.929-7.678-2.929-10.606,0 l-15.903,15.903c-7.7,7.7-10.856,18.636-8.443,29.255l30.118,132.521l-17.061-1.95L319.078,39h0.422c4.142,0,7.5-3.358,7.5-7.5 s-3.358-7.5-7.5-7.5H87.548c-0.01,0-0.02,0-0.03,0H79.5c-4.142,0-7.5,3.358-7.5,7.5c0,3.725,2.719,6.808,6.279,7.392 L48.161,181.955c-0.145,0.689-0.183,1.375-0.138,2.045H15.5c-4.142,0-7.5,3.358-7.5,7.5s3.358,7.5,7.5,7.5H32v64.5 c0,0.208,0.014,0.413,0.031,0.617C12.061,287.726,0,318.229,0,351.5C0,426.215,60.785,487,135.5,487 c58.041,0,107.669-36.686,126.932-88.085c0.35,0.05,0.705,0.085,1.068,0.085H288v0.5c0,8.547,6.953,15.5,15.5,15.5h65.085 c-0.374,2.783-0.585,5.616-0.585,8.5c0,35.014,28.486,63.5,63.5,63.5s63.5-28.486,63.5-63.5c0-3.229-0.246-6.402-0.713-9.503 C503.946,411.077,511,402.099,511,391.5v-40C511,341.164,504.29,332.372,495,329.234z M480,296h-8.5c-0.257,0-0.5-0.243-0.5-0.5v-8 c0-0.257,0.243-0.5,0.5-0.5h8.5V296z M479.961,272H471.5c-8.547,0-15.5,6.953-15.5,15.5v8c0,8.547,6.953,15.5,15.5,15.5h8.5v17 H301.344c-5.92-41.979-27.454-79.006-58.528-105h108.257l90.87,10.388C463.09,236.02,479.161,252.481,479.961,272z M135.5,184H119 l12.232-91.738C132.848,80.141,143.288,71,155.517,71H192v122.816C174.34,187.469,155.318,184,135.5,184z M207,199.5V71h103.968 l31.136,137H223.5c-0.496,0-0.98,0.051-1.449,0.143c-4.869-2.95-9.903-5.654-15.078-8.106C206.986,199.859,207,199.681,207,199.5z M93.586,39h210.433c-0.047,0.708,0.003,1.435,0.168,2.162L307.559,56H155.517c-19.715,0-36.548,14.737-39.153,34.28 l-12.297,92.229c-0.067,0.504-0.081,1.003-0.049,1.491H63.059L93.586,39z M135.5,472C69.056,472,15,417.944,15,351.5 S69.056,231,135.5,231S256,285.056,256,351.5S201.944,472,135.5,472z M267.051,384c2.574-10.416,3.949-21.3,3.949-32.5 c0-74.715-60.785-135.5-135.5-135.5c-33.796,0-64.741,12.438-88.5,32.976V199h88.5c84.089,0,152.5,68.411,152.5,152.5V384H267.051z M431.5,472c-26.743,0-48.5-21.757-48.5-48.5c0-26.743,21.757-48.5,48.5-48.5s48.5,21.757,48.5,48.5 C480,450.243,458.243,472,431.5,472z M496,391.5c0,3.711-2.394,6.865-5.715,8.022C480.803,376.363,458.032,360,431.5,360 c-26.714,0-49.611,16.589-58.973,40H303.5c-0.276,0-0.5-0.224-0.5-0.5v-48c0-2.85-0.073-5.684-0.214-8.5H487.5 c4.687,0,8.5,3.813,8.5,8.5V391.5z"/></symbol><symbol id="power" viewBox="0 0 480 480"><title>power</title><g> <g> <path d="M464,0v24H240c-33.814-0.025-67.155,7.944-97.304,23.256L88,30.832c-24.274-7.299-49.869,6.462-57.168,30.736 c-2.592,8.62-2.592,17.812,0,26.432l16.424,54.72C31.947,172.861,23.979,206.194,24,240c0,2.4,0.104,4.744,0.184,7.104 c-0.081,0.294-0.143,0.594-0.184,0.896v216H0v16h160v-16h-24v-34.76c62.39,34.397,137.755,35.708,201.304,3.504L392,449.168 c24.274,7.299,49.869-6.462,57.168-30.736c2.592-8.62,2.592-17.812,0-26.432l-16.424-54.72 C448.053,307.139,456.021,273.806,456,240c-0.027-30.321-6.413-60.3-18.744-88H464v24h16V0H464z M46.168,83.376 C41.406,67.59,50.343,50.932,66.13,46.17c5.621-1.696,11.617-1.696,17.238-0.002l40.048,12c-1.224,0.8-2.4,1.6-3.584,2.4 l-1.12,0.76c-22.578,15.306-42.038,34.766-57.344,57.344l-0.76,1.12c-0.8,1.2-1.648,2.4-2.4,3.584L46.168,83.376z M120,464H40v-16 h80V464z M40,432V321.464c1.984,4.853,4.139,9.621,6.464,14.304l0.344,0.664c2.133,4.267,4.416,8.469,6.848,12.608 c0.28,0.472,0.536,0.944,0.8,1.416c2.416,4.048,4.963,8.008,7.64,11.88c0.664,0.96,1.36,1.904,2.04,2.864 c2.133,3.008,4.355,5.957,6.664,8.848c0.8,0.976,1.512,1.96,2.296,2.92c2.68,3.264,5.48,6.4,8.344,9.528 c1.208,1.312,2.456,2.592,3.704,3.88c2.224,2.288,4.499,4.528,6.824,6.72c1.488,1.408,2.984,2.8,4.52,4.16 c2.667,2.384,5.395,4.696,8.184,6.936c1.392,1.12,2.792,2.224,4.216,3.312c3.408,2.608,6.864,5.152,10.4,7.56 c0.232,0.16,0.44,0.336,0.672,0.488L120,432H40z M433.832,396.624c4.749,15.8-4.21,32.457-20.009,37.206 c-5.606,1.685-11.584,1.686-17.191,0.002l-40.048-12c1.224-0.8,2.4-1.6,3.584-2.4l1.12-0.76 c22.578-15.306,42.038-34.766,57.344-57.344l0.76-1.12c0.8-1.2,1.648-2.4,2.4-3.584L433.832,396.624z M440,240 c0.033,32.832-8.07,65.161-23.584,94.096c-1.896,3.56-3.904,7.032-6,10.448c-0.904,1.472-1.856,2.912-2.792,4.36 c-1.352,2.08-2.752,4.12-4.176,6.136c-1.973,2.805-4.024,5.557-6.152,8.256c-1.144,1.464-2.28,2.928-3.464,4.36 c-1.68,2.027-3.403,4.016-5.168,5.968c-0.8,0.872-1.6,1.728-2.4,2.584c-3.232,3.472-6.584,6.824-10.056,10.056 c-0.856,0.8-1.712,1.6-2.584,2.4c-1.963,1.76-3.952,3.483-5.968,5.168c-1.432,1.184-2.896,2.32-4.36,3.464 c-2.693,2.133-5.445,4.184-8.256,6.152c-2.016,1.424-4.056,2.824-6.136,4.176c-1.448,0.936-2.888,1.888-4.36,2.792 c-3.416,2.096-6.888,4.104-10.448,6c-64.527,34.522-142.779,30.929-203.872-9.36c-1.704-1.12-3.376-2.28-5.04-3.448 c-1.408-0.984-2.824-1.96-4.2-2.984c-1.664-1.24-3.272-2.528-4.888-3.8c-2.48-1.968-4.909-3.987-7.288-6.056 c-1.264-1.104-2.552-2.2-3.792-3.336c-1.464-1.344-2.888-2.728-4.312-4.112c-1.176-1.144-2.352-2.296-3.496-3.472 c-1.355-1.376-2.688-2.773-4-4.192c-1.232-1.336-2.4-2.696-3.632-4.064c-1.232-1.368-2.296-2.6-3.408-3.936 c-2.2-2.648-4.344-5.336-6.4-8.096c-0.448-0.6-0.864-1.224-1.304-1.824c-1.768-2.4-3.504-4.896-5.168-7.4 c-0.544-0.8-1.056-1.656-1.6-2.48c-1.6-2.448-3.096-4.92-4.552-7.432c-0.408-0.696-0.8-1.384-1.2-2.08 c-1.712-3.024-3.36-6.08-4.912-9.192l-0.232-0.488c-12.508-25.232-19.529-52.827-20.6-80.968c-0.104-2.568-0.2-5.12-0.2-7.696 c-0.033-32.832,8.07-65.161,23.584-94.096c1.896-3.56,3.904-7.032,6-10.448c0.904-1.472,1.856-2.912,2.792-4.36 c1.352-2.08,2.752-4.12,4.176-6.136c1.973-2.811,4.024-5.563,6.152-8.256c1.144-1.464,2.28-2.928,3.464-4.36 c1.68-2.027,3.403-4.016,5.168-5.968c0.8-0.872,1.6-1.728,2.4-2.584c3.232-3.472,6.584-6.824,10.056-10.056 c0.856-0.8,1.712-1.6,2.584-2.4c1.957-1.76,3.947-3.483,5.968-5.168c1.432-1.184,2.896-2.32,4.36-3.464 c2.693-2.133,5.445-4.184,8.256-6.152c2.016-1.424,4.056-2.824,6.136-4.176c1.448-0.936,2.888-1.888,4.36-2.792 c3.416-2.096,6.888-4.104,10.448-6C174.839,48.07,207.168,39.967,240,40h160v96h-72v0.496 C270.642,87.701,184.589,94.642,135.793,152c-48.795,57.358-41.854,143.411,15.504,192.207 c57.358,48.795,143.411,41.854,192.207-15.504c43.329-50.932,43.329-125.77,0-176.703h76C433.041,179.357,440.056,209.477,440,240 z M360,240c0,66.274-53.726,120-120,120s-120-53.726-120-120s53.726-120,120-120C306.243,120.075,359.925,173.757,360,240z M464,136h-48V40h48V136z"/> </g> </g><g> <g> <path d="M343.536,230.856c-0.096-1.128-0.232-2.248-0.36-3.368c-0.232-1.832-0.52-3.656-0.8-5.472 c-0.384-2.192-0.848-4.352-1.368-6.488c-0.368-1.528-0.72-3.056-1.16-4.576l-0.08-0.24c-0.848-2.88-1.848-5.696-2.936-8.472 c-0.152-0.384-0.272-0.8-0.432-1.176c-1.176-2.896-2.496-5.712-3.92-8.48c-0.112-0.224-0.208-0.464-0.328-0.688 c-1.504-2.864-3.136-5.6-4.888-8.336c-0.088-0.128-0.16-0.264-0.248-0.4c-1.736-2.64-3.592-5.184-5.552-7.656 c-0.2-0.216-0.336-0.432-0.496-0.624c-1.808-2.24-3.728-4.376-5.704-6.456c-0.392-0.408-0.744-0.848-1.144-1.248 c-1.68-1.712-3.464-3.312-5.264-4.904c-0.8-0.696-1.52-1.44-2.328-2.12c-1.408-1.176-2.904-2.232-4.368-3.336 c-1.28-0.96-2.512-1.968-3.832-2.864c-1.16-0.8-2.4-1.472-3.576-2.208c-1.6-0.984-3.104-2.024-4.728-2.912 c-0.12-0.072-0.248-0.12-0.368-0.184c-0.64-0.352-1.328-0.632-1.976-0.968c-2.288-1.184-4.592-2.344-6.96-3.352 c-1-0.432-2.056-0.8-3.08-1.168c-2.08-0.8-4.144-1.6-6.272-2.296c-1.208-0.384-2.456-0.664-3.688-1 c-1.992-0.552-4-1.12-6.016-1.552c-1.376-0.296-2.784-0.48-4.176-0.72c-1.92-0.32-3.832-0.664-5.768-0.88 c-1.6-0.184-3.256-0.248-4.888-0.36c-1.632-0.112-3.416-0.232-5.144-0.256c-0.56,0-1.112-0.088-1.68-0.088 c-1.52,0-3.008,0.16-4.512,0.232c-1.2,0.056-2.4,0.08-3.608,0.176c-2.656,0.208-5.264,0.544-7.856,0.952 c-0.584,0.088-1.168,0.16-1.76,0.264c-3.019,0.533-5.989,1.189-8.912,1.968c-0.192,0.048-0.384,0.072-0.568,0.12l-0.28,0.088 c-3.125,0.864-6.187,1.867-9.184,3.008l-0.8,0.272c-2.997,1.168-5.931,2.467-8.8,3.896c-0.248,0.128-0.496,0.232-0.736,0.36 c-2.808,1.424-5.528,2.984-8.176,4.648c-0.304,0.192-0.608,0.36-0.904,0.552c-2.496,1.6-4.904,3.328-7.248,5.136 c-0.432,0.336-0.888,0.64-1.312,0.984c-2.096,1.664-4.096,3.44-6.048,5.256c-0.624,0.576-1.264,1.112-1.864,1.696 c-1.648,1.6-3.2,3.312-4.744,5.024c-0.8,0.896-1.6,1.744-2.4,2.656c-1.232,1.472-2.4,3.032-3.512,4.568 c-0.928,1.232-1.904,2.4-2.776,3.712c-0.968,1.408-1.808,2.904-2.704,4.368s-1.728,2.64-2.488,4 c-0.056,0.104-0.096,0.216-0.152,0.312c-1.856,3.437-3.518,6.976-4.976,10.6c-0.408,1-0.736,2.008-1.112,3.016 c-1.032,2.792-1.96,5.6-2.76,8.528c-0.312,1.144-0.608,2.28-0.888,3.432c-0.688,2.912-1.24,5.864-1.688,8.856 c-0.16,1.064-0.36,2.112-0.48,3.2c-0.489,4.019-0.742,8.063-0.76,12.112c0,3.048,0.184,6.096,0.464,9.144 c0.096,1.128,0.232,2.248,0.36,3.368c0.232,1.832,0.52,3.656,0.8,5.472c0.384,2.192,0.848,4.352,1.368,6.488 c0.368,1.528,0.72,3.056,1.16,4.576l0.08,0.24c0.856,2.888,1.856,5.712,2.944,8.488c0.144,0.384,0.264,0.8,0.416,1.152 c1.184,2.912,2.512,5.752,3.944,8.528c0.112,0.208,0.2,0.424,0.304,0.632c1.52,2.891,3.165,5.693,4.936,8.408 c0.072,0.112,0.128,0.224,0.2,0.328c1.752,2.672,3.632,5.248,5.6,7.752c0.136,0.168,0.256,0.344,0.392,0.512 c1.824,2.272,3.776,4.44,5.792,6.552c0.352,0.376,0.68,0.8,1.048,1.152c1.712,1.752,3.536,3.384,5.376,5.008 c0.744,0.664,1.448,1.376,2.216,2.016c1.448,1.216,3,2.312,4.52,3.448c1.224,0.92,2.4,1.896,3.68,2.76 c1.28,0.864,2.472,1.52,3.704,2.288c1.536,0.952,3.032,1.968,4.616,2.84c0.104,0.056,0.216,0.096,0.312,0.152 c3.437,1.856,6.976,3.518,10.6,4.976c1,0.408,2.008,0.736,3.016,1.112c2.792,1.032,5.6,1.96,8.528,2.76 c1.144,0.312,2.28,0.608,3.432,0.888c2.912,0.688,5.864,1.24,8.856,1.688c1.064,0.16,2.112,0.36,3.2,0.48 c4.026,0.5,8.079,0.765,12.136,0.792c3.048,0,6.096-0.184,9.144-0.464c1.128-0.096,2.248-0.232,3.368-0.36 c1.832-0.232,3.656-0.52,5.472-0.8c2.192-0.384,4.352-0.848,6.488-1.368c1.52-0.368,3.048-0.712,4.56-1.152l0.24-0.08 c2.88-0.848,5.696-1.848,8.472-2.936c0.384-0.152,0.8-0.272,1.176-0.432c2.888-1.168,5.704-2.488,8.456-3.904l0.712-0.344 c2.848-1.499,5.611-3.12,8.288-4.864c0.152-0.096,0.304-0.176,0.456-0.28c2.616-1.712,5.128-3.552,7.576-5.488 c0.224-0.184,0.472-0.344,0.696-0.528c2.2-1.768,4.288-3.656,6.328-5.6c0.456-0.424,0.936-0.8,1.384-1.256 c1.656-1.6,3.2-3.368,4.752-5.104c0.752-0.8,1.544-1.6,2.264-2.488c1.112-1.336,2.12-2.76,3.2-4.152 c1.08-1.392,2.08-2.656,3.032-4.056c0.696-1.024,1.296-2.112,1.96-3.2c1.064-1.696,2.192-3.36,3.2-5.128 c0.056-0.104,0.096-0.216,0.152-0.32c1.855-3.431,3.514-6.965,4.968-10.584c0.408-1,0.736-2.016,1.112-3.024 c1.067-2.789,1.987-5.632,2.76-8.528c0.312-1.144,0.608-2.272,0.888-3.424c0.688-2.912,1.24-5.872,1.688-8.872 c0.16-1.056,0.36-2.096,0.48-3.16c0.478-4.017,0.721-8.059,0.728-12.104C344,236.952,343.816,233.904,343.536,230.856z M288.328,202.6c0.36-0.456,0.656-0.952,0.992-1.424c0.56-0.8,1.144-1.536,1.6-2.352c0.344-0.552,0.624-1.144,0.936-1.72 c0.424-0.8,0.872-1.512,1.24-2.304c0.288-0.616,0.512-1.256,0.76-1.88c0.328-0.8,0.672-1.56,0.944-2.4 c0.216-0.632,0.36-1.296,0.544-1.944c0.232-0.8,0.488-1.6,0.672-2.464c0.144-0.664,0.216-1.336,0.32-2 c0.144-0.84,0.304-1.672,0.384-2.52c0.064-0.688,0.064-1.368,0.096-2.056c0.04-0.848,0.104-1.688,0.088-2.544 c0-0.688-0.096-1.384-0.144-2.08c-0.048-0.696-0.056-1.456-0.152-2.184c0.24,0.2,0.456,0.424,0.688,0.632 c2.499,2.16,4.873,4.46,7.112,6.888c0.456,0.488,0.896,0.976,1.336,1.472c4.984,5.617,9.236,11.843,12.656,18.528 c0.176,0.352,0.336,0.712,0.512,1.064c1.557,3.156,2.919,6.405,4.08,9.728c0.088,0.216,0.208,0.424,0.248,0.648l-0.016,0.104 L315.2,222.4c-4.545,6.029-11.65,9.581-19.2,9.6h-33.36c-0.136-0.384-0.312-0.744-0.464-1.12l-0.16-0.384 c-0.12-0.28-0.216-0.568-0.352-0.848l23.592-23.592C286.345,204.964,287.371,203.81,288.328,202.6z M238.208,152.088 c2.288-0.048,4.568,0,6.84,0.168c1.144,0.064,2.304,0.064,3.44,0.176c3.201,0.299,6.382,0.78,9.528,1.44 c0.848,0.176,1.664,0.44,2.504,0.64c2.4,0.584,4.8,1.224,7.136,2.008c1.08,0.36,2.128,0.8,3.2,1.168 c2.075,0.779,4.12,1.635,6.136,2.568c0.624,0.288,1.24,0.592,1.864,0.896l1.888,13.232c1.052,7.475-1.458,15.011-6.784,20.36 l-23.592,23.592c-0.28-0.136-0.568-0.232-0.848-0.352l-0.384-0.16c-0.376-0.152-0.736-0.328-1.12-0.464v-37.6 c-0.021-2.333-0.246-4.659-0.672-6.952c-0.112-0.64-0.256-1.272-0.4-1.904c-0.391-1.741-0.899-3.455-1.52-5.128 c-0.192-0.52-0.344-1.04-0.552-1.544c-0.865-2.064-1.901-4.052-3.096-5.944c-0.256-0.392-0.56-0.752-0.8-1.144 c-1.031-1.498-2.164-2.923-3.392-4.264c-0.208-0.232-0.368-0.512-0.584-0.744C237.376,152.136,237.792,152.096,238.208,152.088z M173.32,182.736v0.016c2.337-2.7,4.835-5.257,7.48-7.656c0.416-0.376,0.8-0.8,1.24-1.128c6.067-5.317,12.831-9.782,20.104-13.272 l0.376-0.176c3.746-1.779,7.614-3.287,11.576-4.512l4.64,2.32c8.148,4.037,13.292,12.355,13.264,21.448v37.6 c-0.384,0.136-0.744,0.312-1.12,0.464l-0.384,0.16c-0.28,0.12-0.568,0.216-0.848,0.352l-23.592-23.592 c-1.725-1.686-3.599-3.212-5.6-4.56c-0.312-0.216-0.616-0.44-0.936-0.648c-1.928-1.24-3.96-2.31-6.072-3.2 c-0.36-0.152-0.72-0.288-1.088-0.432c-2.19-0.878-4.451-1.563-6.76-2.048l-0.376-0.056c-2.293-0.427-4.619-0.655-6.952-0.68 c-0.192,0-0.384-0.064-0.584-0.064s-0.264,0-0.392,0c-1.032,0-2.064,0.096-3.096,0.192c-0.488,0-0.976,0-1.464,0.096 C172.944,183.136,173.136,182.944,173.32,182.736z M153.784,245.896v0.056c-0.464,0.536-0.968,1.048-1.4,1.6 C152.168,245.024,152,242.536,152,240c0.009-3.208,0.193-6.412,0.552-9.6c0.088-0.8,0.256-1.6,0.36-2.352 c0.336-2.4,0.712-4.8,1.24-7.112c0.208-0.96,0.488-1.888,0.728-2.84c0.544-2.104,1.144-4.192,1.84-6.256 c0.36-1.072,0.76-2.128,1.168-3.2c0.704-1.848,1.48-3.672,2.312-5.472c0.304-0.664,0.632-1.328,0.952-1.984l13.232-1.888 c7.475-1.06,15.015,1.452,20.36,6.784l23.592,23.592c-0.128,0.272-0.224,0.56-0.344,0.8l-0.176,0.416 c-0.152,0.368-0.328,0.728-0.456,1.104H184c-1.545,0.002-3.089,0.093-4.624,0.272c-0.536,0.064-1.056,0.2-1.6,0.28 c-0.984,0.16-1.976,0.296-2.944,0.528c-0.6,0.144-1.184,0.352-1.784,0.528c-0.872,0.248-1.752,0.472-2.6,0.8 c-0.616,0.224-1.208,0.512-1.808,0.8c-0.8,0.336-1.6,0.64-2.4,1.032c-0.616,0.304-1.192,0.672-1.792,1.008 c-0.728,0.408-1.472,0.8-2.176,1.248c-0.704,0.448-1.144,0.8-1.72,1.24s-1.344,0.936-1.984,1.464 c-0.64,0.528-1.048,0.952-1.6,1.432c-0.552,0.48-1.232,1.096-1.8,1.688C154.6,244.904,154.256,245.352,153.784,245.896z M191.664,277.408v0.056c-0.296,0.376-0.536,0.8-0.8,1.168c-0.624,0.856-1.264,1.704-1.816,2.608 c-0.296,0.472-0.528,0.984-0.8,1.472c-0.472,0.8-0.968,1.68-1.376,2.552c-0.264,0.56-0.456,1.136-0.688,1.704 c-0.352,0.84-0.72,1.68-1.016,2.544c-0.2,0.6-0.336,1.216-0.504,1.824c-0.248,0.856-0.52,1.704-0.704,2.584 c-0.136,0.64-0.208,1.288-0.312,1.936c-0.144,0.856-0.304,1.712-0.392,2.584c-0.064,0.672-0.064,1.352-0.096,2.032 c0,0.856-0.104,1.704-0.088,2.552c0,0.704,0.096,1.4,0.144,2.104c0.048,0.704,0.056,1.448,0.152,2.168 c-0.216-0.184-0.416-0.384-0.624-0.568c-2.53-2.193-4.934-4.527-7.2-6.992c-0.432-0.464-0.864-0.936-1.288-1.408 c-4.976-5.623-9.223-11.851-12.64-18.536c-0.176-0.336-0.336-0.688-0.504-1.032c-1.557-3.163-2.923-6.417-4.088-9.744 c-0.08-0.216-0.168-0.424-0.24-0.648L164.8,257.6c4.547-6.027,11.651-9.579,19.2-9.6h33.36c0.128,0.376,0.304,0.736,0.456,1.104 l0.176,0.416c0.12,0.272,0.216,0.56,0.344,0.8l-23.592,23.592C193.651,275.018,192.623,276.185,191.664,277.408z M246.08,327.688 l-0.016,0.056c-2.947,0.212-5.903,0.268-8.856,0.168c-1.12,0-2.248-0.088-3.36-0.168c-2.864-0.197-5.712-0.536-8.544-1.016 c-0.704-0.12-1.424-0.184-2.12-0.32c-3.519-0.688-6.992-1.591-10.4-2.704c-0.712-0.232-1.392-0.52-2.096-0.8 c-2.667-0.949-5.296-2.029-7.888-3.24c-0.56-0.256-1.104-0.52-1.656-0.8l-1.872-13.264c-1.053-7.475,1.458-15.011,6.784-20.36 l23.592-23.592c0.28,0.136,0.568,0.232,0.856,0.36l0.376,0.152c0.368,0.152,0.736,0.328,1.12,0.464V296 c0.002,1.545,0.093,3.089,0.272,4.624c0.064,0.544,0.2,1.064,0.28,1.6c0.16,0.984,0.296,1.968,0.528,2.936 c0.144,0.616,0.36,1.208,0.536,1.816c0.248,0.864,0.472,1.728,0.8,2.576c0.224,0.616,0.52,1.208,0.8,1.824 c0.336,0.8,0.648,1.6,1.032,2.4c0.304,0.616,0.672,1.192,1.008,1.792c0.408,0.728,0.8,1.48,1.248,2.184s0.8,1.152,1.248,1.728 s0.936,1.336,1.448,1.968c0.512,0.632,0.968,1.064,1.456,1.6c0.488,0.536,1.08,1.224,1.672,1.792 c0.592,0.568,1.08,0.944,1.6,1.416s1.048,0.96,1.6,1.392C247.04,327.656,246.552,327.656,246.08,327.688z M247.376,243.112 c-0.276,0.517-0.603,1.005-0.976,1.456c-0.512,0.712-1.136,1.336-1.848,1.848c-0.451,0.373-0.939,0.7-1.456,0.976 c-1.98,0.831-4.212,0.831-6.192,0c-0.517-0.276-1.005-0.603-1.456-0.976c-0.657-0.465-1.237-1.029-1.72-1.672 c-0.431-0.487-0.801-1.024-1.104-1.6c-0.831-1.98-0.831-4.212,0-6.192c0.297-0.603,0.668-1.168,1.104-1.68v0.016 c0.483-0.643,1.063-1.207,1.72-1.672c0.451-0.373,0.939-0.7,1.456-0.976c1.98-0.831,4.212-0.831,6.192,0 c0.517,0.276,1.005,0.603,1.456,0.976c0.712,0.512,1.336,1.136,1.848,1.848c0.373,0.451,0.7,0.939,0.976,1.456 C248.207,238.9,248.207,241.132,247.376,243.112z M306.608,297.336l-0.016,0.056c-2.16,2.499-4.46,4.873-6.888,7.112 c-0.488,0.456-0.976,0.896-1.472,1.336c-5.608,4.947-11.817,9.167-18.48,12.56l-1.064,0.512c-3.157,1.557-6.405,2.919-9.728,4.08 c-0.216,0.08-0.424,0.168-0.648,0.24L257.6,315.2c-6.029-4.545-9.581-11.65-9.6-19.2v-33.36c0.384-0.136,0.744-0.312,1.12-0.464 l0.384-0.16c0.28-0.12,0.568-0.216,0.848-0.352l23.592,23.592c1.725,1.691,3.599,3.222,5.6,4.576l0.88,0.616 c1.928,1.24,3.959,2.31,6.072,3.2c0.368,0.16,0.728,0.304,1.096,0.448c2.162,0.862,4.394,1.537,6.672,2.016 c0.232,0.048,0.472,0.072,0.704,0.112c2.311,0.44,4.656,0.673,7.008,0.696c0.112,0,0.216,0,0.32,0h0.144 c1.605-0.002,3.208-0.104,4.8-0.304C307.04,296.888,306.816,297.104,306.608,297.336z M327.432,249.696 c-0.088,0.8-0.256,1.6-0.368,2.4c-0.328,2.4-0.704,4.728-1.224,7.056c-0.216,0.976-0.496,1.928-0.744,2.888 c-0.544,2.088-1.128,4.16-1.824,6.2c-0.368,1.088-0.8,2.16-1.184,3.2c-0.704,1.84-1.472,3.648-2.296,5.44 c-0.312,0.672-0.64,1.328-0.96,1.992L305.6,280.76c-7.474,1.047-15.008-1.463-20.36-6.784l-23.592-23.592 c0.136-0.28,0.232-0.568,0.352-0.848l0.16-0.384c0.152-0.376,0.328-0.736,0.464-1.12H296c1.545-0.002,3.089-0.093,4.624-0.272 c0.544-0.064,1.064-0.2,1.6-0.28c0.984-0.16,1.968-0.296,2.936-0.528c0.616-0.144,1.208-0.36,1.816-0.536 c0.864-0.248,1.728-0.472,2.576-0.8c0.616-0.224,1.208-0.52,1.824-0.8c0.8-0.336,1.6-0.648,2.4-1.032 c0.616-0.304,1.192-0.672,1.792-1.008c0.728-0.408,1.48-0.8,2.184-1.248s1.152-0.8,1.728-1.248s1.336-0.936,1.968-1.448 c0.632-0.512,1.064-0.968,1.6-1.456c0.536-0.488,1.224-1.08,1.792-1.672c0.568-0.592,0.912-1.056,1.384-1.6l-0.016,0.088 c0.464-0.544,0.96-1.048,1.392-1.6c0.216,2.48,0.384,4.968,0.384,7.504C327.975,243.304,327.791,246.508,327.432,249.696z"/> </g> </g><g> <g> <rect x="64" y="64" width="16" height="16"/> </g> </g><g> <g> <rect x="400" y="400" width="16" height="16"/> </g> </g><g> <g> <path d="M56,240h16c0.101-92.742,75.258-167.899,168-168V56C138.427,56.115,56.115,138.427,56,240z"/> </g> </g><g> <g> <rect x="256" y="56" width="16" height="16"/> </g> </g></symbol><symbol id="car" viewBox="0 0 512 512"><title>car</title><g> <g> <g> <path d="M108.064,299.735c-7.664,0-13.873,6.219-13.873,13.884c0,7.664,6.209,13.884,13.873,13.884 c7.675,0,13.884-6.219,13.884-13.884C121.948,305.954,115.739,299.735,108.064,299.735z"/> <path d="M477.28,193.324l-97.552-39.096c-16.24-6.513-33.348-9.811-50.854-9.811h-59.796c-21.422,0-42.845,5.13-61.943,14.847 l-88.391,44.949l-63.408,9.245c-15.37,2.241-29.422,9.947-39.588,21.705C5.591,246.912,0,261.937,0,277.464v37.421 c0,5.78,4.691,10.47,10.47,10.47h44.918c2.251,10.188,7.413,19.506,15.035,26.94c10.135,9.853,23.506,15.287,37.651,15.287 c14.135,0,27.506-5.434,37.641-15.287c7.633-7.444,12.805-16.784,15.046-26.94h187.66c2.251,10.188,7.413,19.506,15.046,26.93 c10.125,9.863,23.495,15.297,37.63,15.297c14.145,0,27.516-5.434,37.641-15.287c7.633-7.434,12.795-16.753,15.046-26.94h47.745 c5.78,0,10.47-4.691,10.47-10.47V244.65C512,221.929,498.368,201.785,477.28,193.324z M371.938,173.661l75.303,30.186h-56.823 l-25.014-32.573C367.593,172.007,369.771,172.803,371.938,173.661z M278.899,165.358h49.975c1.906,0,3.801,0.042,5.685,0.136 l29.453,38.353h-85.113V165.358z M216.621,177.933c12.868-6.544,26.972-10.627,41.337-12.02v37.934h-92.296L216.621,177.933z M56.739,234.462c-4.303,14.564-17.15,25.495-32.709,26.982C29.484,247.76,41.703,237.237,56.739,234.462z M108.064,346.642 c-18.239,0-33.023-14.784-33.023-33.023c0-18.239,14.784-33.023,33.023-33.023s33.023,14.784,33.023,33.023 C141.088,331.858,126.304,346.642,108.064,346.642z M401.109,346.642c-18.239,0-33.034-14.784-33.034-33.023 c0-18.239,14.795-33.023,33.034-33.023c18.239,0,33.023,14.784,33.023,33.023C434.132,331.858,419.348,346.642,401.109,346.642z M491.059,304.415h-36.793c-4.387-25.38-26.542-44.761-53.168-44.761c-26.616,0-48.771,19.381-53.158,44.761H161.243 c-4.387-25.38-26.553-44.761-53.168-44.761c-26.626,0-48.781,19.381-53.168,44.761H20.941v-21.862 c29.663-0.272,54.142-22.595,57.796-51.347l44.028-6.418h262.492c0,0,0,0,0.01,0c0,0,0,0,0.01,0h66.256v13.632 c0,19.161,15.59,34.751,34.741,34.751h4.785V304.415z M491.059,252.231h-4.785c-7.602,0-13.8-6.198-13.8-13.81v-13.632h12.282 c4.01,5.675,6.303,12.543,6.303,19.862V252.231z"/> <path d="M401.109,299.735c-7.675,0-13.884,6.219-13.884,13.884c0,7.664,6.209,13.884,13.884,13.884 c7.664,0,13.873-6.219,13.873-13.884C414.982,305.954,408.773,299.735,401.109,299.735z"/> </g> </g> </g><g> <g> <path d="M290.199,254.133h-69.446c-5.783,0-10.47,4.688-10.47,10.47s4.688,10.47,10.47,10.47h69.446 c5.782,0,10.47-4.688,10.47-10.47S295.981,254.133,290.199,254.133z"/> </g> </g><g id="SVGCleanerId_0"> <g> <path d="M108.064,299.735c-7.664,0-13.873,6.219-13.873,13.884c0,7.664,6.209,13.884,13.873,13.884 c7.675,0,13.884-6.219,13.884-13.884C121.948,305.954,115.739,299.735,108.064,299.735z"/> </g> </g><g id="SVGCleanerId_1"> <g> <path d="M401.109,299.735c-7.675,0-13.884,6.219-13.884,13.884c0,7.664,6.209,13.884,13.884,13.884 c7.664,0,13.873-6.219,13.873-13.884C414.982,305.954,408.773,299.735,401.109,299.735z"/> </g> </g><g> <g> <path d="M108.064,299.735c-7.664,0-13.873,6.219-13.873,13.884c0,7.664,6.209,13.884,13.873,13.884 c7.675,0,13.884-6.219,13.884-13.884C121.948,305.954,115.739,299.735,108.064,299.735z"/> </g> </g><g> <g> <path d="M401.109,299.735c-7.675,0-13.884,6.219-13.884,13.884c0,7.664,6.209,13.884,13.884,13.884 c7.664,0,13.873-6.219,13.873-13.884C414.982,305.954,408.773,299.735,401.109,299.735z"/> </g> </g></symbol><symbol id="transport-2" viewBox="0 0 512 512"><title>transport-2</title><g> <g> <path d="M504.485,136.266c-13.536,0-24.548-11.011-24.548-24.548c0-4.151-3.364-7.515-7.515-7.515 c-4.151,0-7.515,3.364-7.515,7.515c0,13.536-11.011,24.548-24.548,24.548c-4.151,0-7.515,3.364-7.515,7.515 s3.364,7.515,7.515,7.515c13.536,0,24.548,11.012,24.548,24.548c0,4.151,3.364,7.515,7.515,7.515c4.151,0,7.515-3.364,7.515-7.515 c0-13.536,11.011-24.548,24.548-24.548c4.151,0,7.515-3.364,7.515-7.515S508.636,136.266,504.485,136.266z M472.423,152.665 c-2.472-3.409-5.476-6.412-8.884-8.884c3.409-2.472,6.413-5.476,8.884-8.884c2.472,3.409,5.476,6.412,8.884,8.884 C477.898,146.253,474.895,149.257,472.423,152.665z"/> </g> </g><g> <g> <path d="M71.64,136.266c-13.535,0-24.548-11.011-24.548-24.548c0-4.151-3.365-7.515-7.515-7.515c-4.15,0-7.515,3.364-7.515,7.515 c0,13.536-11.013,24.548-24.548,24.548c-4.15,0-7.515,3.364-7.515,7.515s3.365,7.515,7.515,7.515 c13.535,0,24.548,11.012,24.548,24.548c0,4.151,3.365,7.515,7.515,7.515c4.15,0,7.515-3.364,7.515-7.515 c0-13.536,11.013-24.548,24.548-24.548c4.15,0,7.515-3.364,7.515-7.515S75.79,136.266,71.64,136.266z M39.577,152.665 c-2.472-3.409-5.475-6.412-8.884-8.884c3.41-2.472,6.413-5.476,8.884-8.884c2.472,3.409,5.475,6.412,8.884,8.884 C45.053,146.253,42.049,149.257,39.577,152.665z"/> </g> </g><g> <g> <path d="M296.078,40.078c-17.956,0-32.564-14.607-32.564-32.564C263.515,3.364,260.151,0,256,0c-4.15,0-7.515,3.364-7.515,7.515 c0,17.956-14.609,32.564-32.564,32.564c-4.15,0-7.515,3.364-7.515,7.515s3.365,7.515,7.515,7.515 c17.955,0,32.564,14.608,32.564,32.564c0,4.151,3.365,7.515,7.515,7.515c4.151,0,7.515-3.364,7.515-7.515 c0-17.956,14.608-32.564,32.564-32.564c4.151,0,7.515-3.364,7.515-7.515S300.229,40.078,296.078,40.078z M256,62.027 c-3.715-5.784-8.65-10.719-14.435-14.434c5.785-3.715,10.72-8.65,14.435-14.434c3.715,5.784,8.65,10.719,14.434,14.434 C264.65,51.308,259.715,56.243,256,62.027z"/> </g> </g><g> <g> <path d="M412.456,253.499l-29.232-82.824c-2.187-6.198-8.073-10.362-14.645-10.362H141.417c-6.573,0-12.458,4.164-14.645,10.361 l-29.232,82.825c-1.698,4.811,1.992,10.016,7.086,10.016h300.744c2.438,0,4.725-1.184,6.133-3.174 C412.912,258.35,413.268,255.799,412.456,253.499z M115.247,248.485l25.697-72.809c0.068-0.193,0.267-0.334,0.472-0.334h227.163 c0.205,0,0.404,0.141,0.473,0.335l25.697,72.808H115.247z"/> </g> </g><g> <g> <path d="M399.28,352.689c-26.688,0-47.593,13.864-47.593,31.562s20.905,31.562,47.593,31.562s47.593-13.864,47.593-31.562 S425.968,352.689,399.28,352.689z M399.28,400.783c-18.638,0-32.564-8.728-32.564-16.532s13.925-16.532,32.564-16.532 c18.638,0,32.564,8.728,32.564,16.532S417.918,400.783,399.28,400.783z"/> </g> </g><g> <g> <path d="M110.716,352.689c-26.688,0-47.593,13.864-47.593,31.562s20.905,31.562,47.593,31.562s47.593-13.864,47.593-31.562 S137.404,352.689,110.716,352.689z M110.716,400.783c-18.637,0-32.564-8.728-32.564-16.532s13.926-16.532,32.564-16.532 s32.564,8.728,32.564,16.532S129.354,400.783,110.716,400.783z"/> </g> </g><g> <g> <path d="M495.468,240.47h-40.078c-3.448,0-6.454,2.347-7.29,5.692l-5.279,21.115L405.9,162.671 c-5.574-15.793-20.572-26.405-37.321-26.405H141.417c-16.749,0-31.747,10.612-37.321,26.406l-36.92,104.606l-5.279-21.116 c-0.837-3.346-3.843-5.692-7.29-5.692H14.528c-4.15,0-7.515,3.364-7.515,7.515v32.063c0,4.151,3.365,7.515,7.515,7.515h41.507 l-25.619,35.866c-4.822,6.751-7.371,14.707-7.371,23.004v93.928c0,13.015,6.317,24.581,16.044,31.798 c-0.003,0.088-0.013,0.175-0.013,0.264v24.047c0,8.564,6.967,15.53,15.53,15.53h48.094c8.564,0,15.53-6.967,15.53-15.53v-16.532 h273.534v16.532c0,8.564,6.967,15.53,15.53,15.53h48.094c8.564,0,15.53-6.967,15.53-15.53v-24.047c0-0.089-0.01-0.176-0.013-0.264 c9.727-7.217,16.044-18.783,16.044-31.798v-93.928c0-8.298-2.55-16.254-7.372-23.004l-25.619-35.866h41.508 c4.151,0,7.515-3.364,7.515-7.515v-32.063C502.982,243.833,499.619,240.47,495.468,240.47z M22.043,272.532v-17.033h26.696 l4.258,17.033H22.043z M103.202,496.47c0,0.276-0.224,0.501-0.501,0.501H54.607c-0.276,0-0.501-0.225-0.501-0.501v-16.532h8.517 h40.579V496.47z M455.89,496.47c0,0.276-0.225,0.501-0.501,0.501h-48.094c-0.276,0-0.501-0.225-0.501-0.501v-16.532h40.579h8.517 V496.47z M447.374,464.908H62.622c-10.915,0-20.185-7.162-23.367-17.033H470.74C467.558,457.746,458.289,464.908,447.374,464.908z M319.624,383.75v17.033H190.372V383.75H319.624z M191.553,368.72c3.182-9.871,12.451-17.033,23.367-17.033h80.157 c10.915,0,20.185,7.162,23.367,17.033H191.553z M319.624,415.812v17.033H190.372v-17.033H319.624z M467.35,332.164 c2.991,4.187,4.572,9.121,4.572,14.268v86.414H334.654v-56.611c0-21.823-17.755-39.577-39.577-39.577H214.92 c-21.823,0-39.577,17.755-39.577,39.577v56.611H38.074v-86.414c0-5.147,1.581-10.081,4.572-14.268l31.859-44.602h276.68 c4.151,0,7.515-3.364,7.515-7.515c0-4.151-3.364-7.515-7.515-7.515H81.259l37.009-104.859c3.458-9.795,12.76-16.378,23.149-16.378 H368.58c10.388,0,19.69,6.582,23.149,16.378l37.008,104.859h-45.489c-4.151,0-7.515,3.364-7.515,7.515 c0,4.151,3.364,7.515,7.515,7.515h52.243L467.35,332.164z M487.953,272.532h-30.955l4.258-17.033h26.697V272.532z"/> </g> </g><g> <g> <path d="M134.763,328.642H86.669c-4.15,0-7.515,3.364-7.515,7.515s3.365,7.515,7.515,7.515h48.094c4.15,0,7.515-3.364,7.515-7.515 S138.913,328.642,134.763,328.642z"/> </g> </g><g> <g> <path d="M423.327,328.642h-48.094c-4.151,0-7.515,3.364-7.515,7.515s3.364,7.515,7.515,7.515h48.094 c4.151,0,7.515-3.364,7.515-7.515S427.478,328.642,423.327,328.642z"/> </g> </g></symbol><symbol id="transport-1" viewBox="0 0 33.001 33.001"><title>transport-1</title><g> <path d="M22.438,22.133h-11.43c-0.276,0-0.5-0.224-0.5-0.5s0.224-0.5,0.5-0.5h11.43c0.276,0,0.5,0.224,0.5,0.5 S22.715,22.133,22.438,22.133z"/> <path d="M8.288,24.854c-1.776,0-3.221-1.444-3.221-3.221s1.444-3.221,3.221-3.221s3.221,1.444,3.221,3.221 S10.064,24.854,8.288,24.854z M8.288,19.412c-1.225,0-2.221,0.996-2.221,2.221s0.996,2.221,2.221,2.221s2.221-0.996,2.221-2.221 S9.513,19.412,8.288,19.412z"/> <path d="M25.159,24.854c-1.776,0-3.221-1.444-3.221-3.221s1.444-3.221,3.221-3.221s3.221,1.444,3.221,3.221 S26.935,24.854,25.159,24.854z M25.159,19.412c-1.225,0-2.221,0.996-2.221,2.221s0.996,2.221,2.221,2.221s2.221-0.996,2.221-2.221 S26.384,19.412,25.159,19.412z"/> </g><path d="M22.442,22.133H11.01c-0.276,0-0.5-0.224-0.5-0.5s0.224-0.5,0.5-0.5h11.433c0.276,0,0.5,0.224,0.5,0.5 S22.719,22.133,22.442,22.133z"/><path d="M30.281,22.133h-2.404c-0.276,0-0.5-0.224-0.5-0.5s0.224-0.5,0.5-0.5h2.404c0.619,0,1.137-0.444,1.232-1.056l0.472-3.017 c0.053-0.341-0.033-0.679-0.243-0.953c-0.209-0.272-0.514-0.443-0.855-0.48l-7.261-0.787c-0.099-0.011-0.192-0.051-0.268-0.114 l-6.057-5.091c-0.374-0.314-0.85-0.487-1.338-0.487H5.988c-0.457,0-0.883,0.225-1.142,0.602l-3.628,5.289 c-0.181,0.264-0.253,0.582-0.203,0.898l0.646,4.141c0.096,0.611,0.614,1.056,1.233,1.056h2.668c0.276,0,0.5,0.224,0.5,0.5 s-0.224,0.5-0.5,0.5H2.895c-1.115,0-2.05-0.8-2.222-1.901l-0.646-4.141c-0.089-0.568,0.041-1.144,0.367-1.619l3.628-5.289 c0.444-0.648,1.18-1.035,1.966-1.035h9.976c0.724,0,1.427,0.256,1.98,0.722l5.94,4.993l7.109,0.771 c0.617,0.066,1.164,0.374,1.542,0.866c0.377,0.492,0.533,1.102,0.438,1.716l-0.472,3.017C32.33,21.333,31.396,22.133,30.281,22.133 z"/><path d="M19.266,15.229H4.798c-0.276,0-0.5-0.224-0.5-0.5s0.224-0.5,0.5-0.5h14.468c0.276,0,0.5,0.224,0.5,0.5 S19.542,15.229,19.266,15.229z"/></symbol><symbol id="transport" viewBox="0 0 470 470"><title>transport</title><path d="m126.184,358.951c19.299,0 35-15.701 35-35s-15.701-35-35-35-35,15.701-35,35 15.701,35 35,35zm0-55c11.028,0 20,8.972 20,20s-8.972,20-20,20-20-8.972-20-20 8.971-20 20-20z"/><path d="m343.816,288.951c-19.299,0-35,15.701-35,35s15.701,35 35,35 35-15.701 35-35-15.701-35-35-35zm0,55c-11.028,0-20-8.972-20-20s8.972-20 20-20 20,8.972 20,20-8.971,20-20,20z"/><path d="m137.5,116.049h23.779c4.143,0 7.5-3.358 7.5-7.5s-3.357-7.5-7.5-7.5h-23.779c-10.423,0-27.031,7.176-34.177,14.767l-60.088,63.845c-2.051,2.179-2.609,5.368-1.423,8.115 1.187,2.747 3.893,4.525 6.885,4.525h290.271c2.562,0 4.945-1.307 6.323-3.467 1.377-2.159 1.558-4.873 0.478-7.195l-30.854-66.365c-3.315-7.046-14.628-14.225-22.415-14.225h-101.221c-4.143,0-7.5,3.358-7.5,7.5l-.001,68.752h-117.722l48.19-51.204c4.243-4.508 17.066-10.048 23.254-10.048zm61.279,0h93.7c2.203,0.103 7.842,3.681 8.849,5.581l25.883,55.671h-128.433l.001-61.252z"/><path d="m470,257.692c0-26.631-20.555-55.149-45.819-63.57-0.017-0.006-35.078-11.693-35.078-11.693-5.854-1.951-13.576-8.812-16.203-14.394l-30.84-65.535c-8.299-17.636-30.068-31.451-49.56-31.451h-155c-18.639,0-43.247,10.632-56.022,24.206l-69.158,73.482c-6.909,7.34-12.32,20.984-12.32,31.064v94.15c0,20.678 16.822,37.5 37.5,37.5h14.06c3.775,37.846 35.8,67.5 74.624,67.5s70.849-29.654 74.624-67.5h45.509c4.143,0 7.5-3.358 7.5-7.5s-3.357-7.5-7.5-7.5h-45.509c-3.775-37.846-35.8-67.5-74.624-67.5s-70.849,29.654-74.624,67.5h-14.06c-12.406,0-22.5-10.093-22.5-22.5v-94.15c0-6.294 3.929-16.2 8.242-20.783l69.159-73.483c9.941-10.563 30.594-19.486 45.099-19.486h155c13.682,0 30.162,10.458 35.987,22.838l30.84,65.535c4.421,9.395 15.182,18.955 25.031,22.238l28.498,9.499c-0.492,2.841-0.748,5.729-0.748,8.642 0,25.238 18.65,46.198 42.892,49.831v29.32c0,12.407-8.357,22.5-18.631,22.5h-17.929c-3.775-37.846-35.8-67.5-74.624-67.5-41.355,0-75,33.645-75,75s33.645,75 75,75c38.824,0 70.849-29.654 74.624-67.5h17.929c18.544,0 33.631-16.822 33.631-37.5v-36.26zm-343.816,6.259c33.084,0 60,26.916 60,60s-26.916,60-60,60-60-26.916-60-60 26.916-60 60-60zm217.632,120c-33.084,0-60-26.916-60-60s26.916-60 60-60 60,26.916 60,60-26.916,60-60,60zm83.292-169.15c0-0.969 0.04-1.934 0.117-2.893 13.16,7.627 23.787,22.37 26.864,37.266-15.466-3.785-26.981-17.756-26.981-34.373z"/></symbol></svg>