<?xml version="1.0" encoding="utf-8"?><svg xmlns="http://www.w3.org/2000/svg" xmlns:xlink="http://www.w3.org/1999/xlink"><symbol viewBox="0 0 61 38" id="bus" xmlns="http://www.w3.org/2000/svg"><defs><path id="aa" d="M1322.52 956a2.92 2.92 0 0 1-5.54 0 2.85 2.85 0 0 1 0-2c.42-1.2 1.52-2 2.77-2 1.24 0 2.35.8 2.77 2 .24.65.24 1.36 0 2zm-1.79-1a1 1 0 0 0-.98-1 1 1 0 0 0-.98 1 1 1 0 0 0 .98 1 1 1 0 0 0 .98-1zm5.9-23v10h-17.7v-10zm-9.83 2h-5.9v6h5.9zm7.87 0h-5.9v6h5.9zm39.33 7.4V953c0 1.66-1.32 3-2.95 3h-5a6.93 6.93 0 0 1-5.82 5.93 6.9 6.9 0 0 1-7.79-5.93h-15.89a6.93 6.93 0 0 1-5.82 5.93 6.9 6.9 0 0 1-7.78-5.93h-5a2.98 2.98 0 0 1-2.95-3v-22c0-1.66 1.32-3 2.95-3h48.84c1.19 0 2.27.72 2.72 1.84l4.26 10.4c.15.37.23.76.23 1.16zm-11.8-7.4v6h9.34l-2.46-6zm-27.53 21a4.98 4.98 0 0 0-3.94-4.9 4.92 4.92 0 0 0-5.8 3.91 5 5 0 0 0 3.84 5.9 4.92 4.92 0 0 0 5.9-4.9zm3.93-9h-21.63v7a1 1 0 0 0 .98 1h5a6.93 6.93 0 0 1 5.82-5.92 6.9 6.9 0 0 1 7.78 5.92h2.05zm9.83-12h-7.86v20h7.86zm15.74 21a4.98 4.98 0 0 0-3.94-4.9 4.92 4.92 0 0 0-5.8 3.91 5 5 0 0 0 3.84 5.9 4.92 4.92 0 0 0 5.9-4.9zm7.86-9h-21.63v8h2.04a6.93 6.93 0 0 1 5.83-5.92 6.9 6.9 0 0 1 7.78 5.92h5a1 1 0 0 0 .98-1zm0-4h-19.66v-10h15.9l-.57-1.39a.98.98 0 0 0-.91-.61h-48.84a1 1 0 0 0-.98 1v13h21.63v-12h11.8v12h21.63zm-17.7-8v6h5.9v-6zm7.69 22a2.92 2.92 0 0 1-5.54 0 2.85 2.85 0 0 1 0-2c.42-1.2 1.52-2 2.77-2 1.24 0 2.35.8 2.77 2 .24.65.24 1.36 0 2zm-1.79-1a1 1 0 0 0-.98-1 1 1 0 0 0-.98 1 1 1 0 0 0 .98 1 1 1 0 0 0 .98-1z"/></defs><use xlink:href="#aa" transform="translate(-1304 -926)"/></symbol><symbol viewBox="0 0 69 35" id="car" xmlns="http://www.w3.org/2000/svg"><defs><path id="ba" d="M450.69 942.36a1.4 1.4 0 0 1-1.4 1.39H423.5a.93.93 0 0 1-.95-.93c0-.52.43-.93.95-.93h3.12v-6.82h-2.56a9.5 9.5 0 0 0-6.7 2.73 17.1 17.1 0 0 1-4.2 3.04c-.18.1-.3.28-.3.49 0 .3.25.56.57.56h3.89c.52 0 .94.41.94.93 0 .51-.42.93-.94.93h-3.9a2.4 2.4 0 1 1-1.13-4.56c1.39-.7 2.64-1.62 3.75-2.7 2.14-2.11 5-3.27 8.02-3.27h11.42c2.28 0 4.48.66 6.37 1.92l6.21 4.15c.39.25.79.5 1.2.72a2.69 2.69 0 0 1 1.42 2.35zm-2.04-.47a.87.87 0 0 0-.29-.26c-.46-.24-.9-.52-1.34-.8l-6.22-4.15a9.55 9.55 0 0 0-5.31-1.6h-6.98v6.8zm-16.87 4.2c0 .5-.42.92-.94.92h-2.9a.93.93 0 0 1-.95-.93c0-.5.43-.92.94-.92h2.9c.53 0 .95.41.95.92zm28.58-6.22l2.42.48a7.74 7.74 0 0 1 5.11 3.54l.3.49c.53.87.81 1.86.81 2.88v4.81c0 1.9-1.56 3.44-3.49 3.44h-1.78a6.24 6.24 0 0 1-6 4.49 6.24 6.24 0 0 1-6-4.49H420.5a6.26 6.26 0 0 1-10.41 2.68 6.1 6.1 0 0 1-1.71-3.18l-3.75-1.65a2.72 2.72 0 0 1-1.63-2.48v-8.99c0-2.02 1.46-3.8 3.46-4.2l1.35-.28a12.4 12.4 0 0 0 6.2-3.3c2.7-2.65 6.27-4.11 10.06-4.11h11.42c2.85 0 5.61.83 7.98 2.41l6.22 4.15c1.11.74 2.79 1.77 4.51 2.1l1.25.25zm-42.21 11.62l-.02-.03a4.23 4.23 0 0 0-.32-.4l-.06-.09a4.42 4.42 0 0 0-.33-.32l-.02-.02-.15-.12a4.41 4.41 0 0 0-5.49-.01h-.01l-.13.12-.04.03-.13.12-.03.03-.01.01-.15.16-.06.06-.1.11-.05.08-.08.1-.06.1a3.97 3.97 0 0 0-.25.4l-.03.06-.07.14-.02.04a4.27 4.27 0 0 0 .88 4.82 4.36 4.36 0 0 0 3.08 1.26c1.17 0 2.26-.44 3.08-1.26a4.27 4.27 0 0 0 .57-5.4zm43.23 0l-.02-.03a4.2 4.2 0 0 0-.32-.4l-.07-.09-.16-.17a4.36 4.36 0 0 0-3.08-1.26 4.36 4.36 0 0 0-3.25 1.43l-.07.08-.08.1a3.96 3.96 0 0 0-.25.34 4.27 4.27 0 0 0 .57 5.4 4.36 4.36 0 0 0 3.08 1.25c1.16 0 2.26-.44 3.08-1.26a4.27 4.27 0 0 0 .57-5.4zm5.74-4.23c0-.68-.19-1.34-.54-1.92l-.3-.5a5.85 5.85 0 0 0-3.86-2.67l-8.58-1.69a15.08 15.08 0 0 1-5.2-2.38l-6.22-4.15a12.45 12.45 0 0 0-6.93-2.1h-11.42c-3.3 0-6.4 1.27-8.73 3.57a14.28 14.28 0 0 1-7.14 3.8l-1.35.28a2.46 2.46 0 0 0-1.97 2.4v8.98c0 .34.2.65.52.79l2.93 1.28a6.06 6.06 0 0 1 .8-2.23v-.01c.1-.17.21-.33.33-.5l.04-.05a6.63 6.63 0 0 1 .33-.4l.06-.06a6.15 6.15 0 0 1 4.61-2.01 6.29 6.29 0 0 1 4.63 2.02l.03.04.18.2v.02a6.03 6.03 0 0 1 1.4 3.69h30.75a6.03 6.03 0 0 1 1.39-3.69l.01-.02.17-.19.04-.05.19-.19.03-.03a6.22 6.22 0 0 1 5.93-1.62c1.09.27 2.08.82 2.89 1.62l.03.03.19.2.04.04.16.2.02.01a6.03 6.03 0 0 1 1.39 3.69h1.54c.89 0 1.6-.71 1.6-1.59h.01zm-50.6 8.57a2.85 2.85 0 0 1-4.87-2c0-.74.3-1.45.83-1.98a2.85 2.85 0 0 1 2.02-.83c.76 0 1.48.3 2.02.83a2.8 2.8 0 0 1 0 3.98zm-1.33-2.67a.97.97 0 0 0-1.66.68c0 .26.1.5.28.68a1 1 0 0 0 .7.28c.25 0 .5-.1.68-.28a.95.95 0 0 0 0-1.36zm45.4.68a2.85 2.85 0 0 1-2.85 2.82c-.77 0-1.5-.3-2.03-.83a2.8 2.8 0 0 1 0-3.98 2.86 2.86 0 0 1 2.02-.83 2.85 2.85 0 0 1 2.85 2.82zm-1.89 0c0-.25-.1-.5-.28-.68a.97.97 0 0 0-.7-.28c-.25 0-.5.1-.68.28a.95.95 0 0 0 0 1.36.97.97 0 0 0 1.38 0 .95.95 0 0 0 .28-.68z"/></defs><use xlink:href="#ba" transform="translate(-401 -926)"/></symbol><symbol viewBox="0 0 45 45" id="id-card" xmlns="http://www.w3.org/2000/svg"><defs><path id="ca" d="M1469.99 941.12l.1-1.42c-.23 0-.4-.04-.56-.2-.17-.18-.2-.35-.18-.59l.1-1.9c0-.22.1-.42.25-.58l.38-.38c.1-.1.24-.26-.12-.8-.12-.19-.49-.75-1.83-.75-.46 0-1.42 0-2.26.6a.86.86 0 0 1-.5.16c-2.55.03-2.55.88-2.55 1.79 0 .3.1 1.26.17 1.79a.88.88 0 0 1-.87.99l.23 1.39c.45 0 .84.25.88.7.07.93.52 1.87 1.2 2.51.24.22.33.54.26.85l-.38 1.5a.88.88 0 0 1-.63.63l-3.14.78a3.01 3.01 0 0 0-2.16 2.06h11.34a.88.88 0 0 1 0 1.75h-12.35a.88.88 0 0 1-.87-.88c0-2.19 1.49-4.1 3.61-4.63l2.63-.65.13-.51a5.82 5.82 0 0 1-1.3-2.62 1.6 1.6 0 0 1-.96-1.27l-.2-1.53a1.62 1.62 0 0 1 .76-1.58c-.05-.45-.1-1-.1-1.28 0-1.47.42-3.4 4.02-3.53 1.22-.77 2.48-.77 3.04-.77 1.9 0 2.84.84 3.3 1.54.96 1.47.35 2.5-.1 2.98l-.16.16-.05.93a1.63 1.63 0 0 1 .71 1.55l-.19 1.52c-.06.55-.4 1.01-.87 1.26-.2 1-.69 1.95-1.37 2.7l.11.45 2.63.65c.7.18 1.33.5 1.9.98.36.31.41.86.1 1.23a.88.88 0 0 1-1.23.11c-.36-.3-.76-.51-1.2-.62l-3.13-.78a.87.87 0 0 1-.64-.64l-.35-1.43a.88.88 0 0 1 .26-.86 3.99 3.99 0 0 0 1.26-2.55c.04-.46.42-.8.88-.8zm7.51-4c0-.48.4-.87.87-.87h5.25a.88.88 0 0 1 0 1.75h-5.25a.88.88 0 0 1-.87-.88zm17.5-8.75v19.8a.88.88 0 0 1-1.75 0V931h-38.5v20.12a2.63 2.63 0 0 0 2.62 2.63h12.95a.88.88 0 0 1 0 1.75h-12.95a4.38 4.38 0 0 1-4.37-4.38v-22.75a4.38 4.38 0 0 1 4.37-4.37h33.25a4.38 4.38 0 0 1 4.38 4.37zm-1.75.88v-.88a2.63 2.63 0 0 0-2.63-2.62h-33.25a2.63 2.63 0 0 0-2.62 2.62v.88zm-2.63 8.75h-3.5a.88.88 0 0 1 0-1.75h3.5a.88.88 0 0 1 0 1.75zm3.2 16.41c-.1.09-.2.14-.32.17.42 1.16.62 2.45.62 3.54 0 1.31-.12 3.54-.87 4.68v1.45c0 .98-.77 1.75-1.75 1.75h-1.75c-.98 0-1.75-.77-1.75-1.75v-.6c-1.06.27-2.7.6-4.38.6-1.66 0-3.31-.33-4.37-.6v.6c0 .98-.77 1.75-1.75 1.75h-1.75c-.98 0-1.75-.77-1.75-1.75v-1.45c-.75-1.14-.87-3.37-.87-4.68 0-1.1.2-2.38.62-3.54a.88.88 0 0 1-.32-.17 3.45 3.45 0 0 1-1.18-2.41c0-.4.17-.75.47-.98.23-.18.52-.26.85-.26.44 0 1.2.22 1.84.6.86-1.81 2.26-3.41 3.26-3.91.66-.33 2.92-.7 4.95-.7 2.04 0 4.3.37 4.96.7 1 .5 2.4 2.1 3.26 3.9.65-.37 1.4-.6 1.84-.6.78 0 1.32.52 1.32 1.25a3.44 3.44 0 0 1-1.18 2.41zm-17.18-1.42c1.64.23 5.53.76 6.98.76 1.46 0 5.35-.53 7-.76-.62-1.9-2.16-3.64-2.82-3.98-.32-.14-2.2-.51-4.18-.51-1.98 0-3.85.37-4.17.52-.66.33-2.2 2.07-2.81 3.97zm-2.05-.09c-.1-.06-.21-.12-.33-.17.1.15.19.24.25.3l.08-.13zm2.91 10.48h-1.75v.87h1.75zm14 0h-1.75v.87h1.75zm.87-5.25c0-.28-.02-.58-.05-.88-1.18.04-2.57.43-2.57.87a.88.88 0 0 1-1.75 0c0-2.13 2.89-2.53 3.98-2.6-.1-.32-.22-.62-.35-.9-.25.03-6.02.88-8 .88-1.99 0-7.76-.85-8-.88h-.01c-.14.28-.25.58-.35.9 1.1.07 3.98.47 3.98 2.6a.88.88 0 0 1-1.75 0c0-.44-1.4-.83-2.57-.87a9.95 9.95 0 0 0 .42 4.37h3.02c.07 0 .13.03.2.04l.08.01c.03 0 2.53.83 4.97.83 2.45 0 4.95-.82 4.98-.83.09-.03.18-.05.27-.05h3.03c.23-.52.47-1.72.47-3.5zm.62-5.4c-.12.05-.23.11-.33.17l.08.12c.07-.07.16-.16.25-.3zm-15.49-10.36c0-.48.4-.87.87-.87h12.25a.88.88 0 0 1 0 1.75h-12.25a.88.88 0 0 1-.87-.88zm8.75 15.75c0 .49-.4.88-.87.88h-3.5a.88.88 0 0 1 0-1.75h3.5c.48 0 .87.4.87.88z"/></defs><use xlink:href="#ca" transform="translate(-1451 -922)"/></symbol><symbol viewBox="0 0 61 44" id="shipped" xmlns="http://www.w3.org/2000/svg"><defs><path id="da" d="M929.53 965a5.79 5.79 0 0 1-5.72-4.77h-6.84a.96.96 0 0 1-.97-.95v-30.51c0-.53.43-.96.97-.96h36.73c.53 0 .97.43.97.96v5.72h9.66c.33 0 .64.16.82.44l8.7 13.34c.1.16.15.34.15.52v10.49c0 .53-.43.95-.97.95h-4.91a5.79 5.79 0 0 1-5.72 4.77 5.79 5.79 0 0 1-5.72-4.77h-21.43a5.79 5.79 0 0 1-5.72 4.77zm0-11.44a5.79 5.79 0 0 1 5.72 4.77h17.48v-1.91H936.3v-1.9h16.43v-20.99h-32.86v-1.9h32.86v-1.9h-34.8v24.78h4.84v1.9h-4.84v1.92h5.88a5.79 5.79 0 0 1 5.72-4.77zm3.87 5.72c0-2.1-1.73-3.81-3.87-3.81a3.84 3.84 0 0 0-3.86 3.8c0 2.11 1.73 3.82 3.86 3.82a3.84 3.84 0 0 0 3.87-3.81zm29-5.72a5.79 5.79 0 0 1 5.72 4.77h3.95v-1.91h-2.9v-1.9h2.9v-5.45l-.19-.28h-14.31a.96.96 0 0 1-.97-.95v-8.58c0-.53.43-.96.97-.96h7.48l-1.24-1.9h-9.14v21.93h2.01a5.79 5.79 0 0 1 5.72-4.77zm3.87 5.72c0-2.1-1.74-3.81-3.87-3.81a3.84 3.84 0 0 0-3.87 3.8c0 2.11 1.74 3.82 3.87 3.82a3.84 3.84 0 0 0 3.87-3.81zm-7.74-12.4h12.11l-4.37-6.7v.03h-7.74zm-29.96 11.45h1.93v1.9h-1.93zm32.86 0h1.94v1.9h-1.94zM919.87 924h13.53v1.9h-13.53zm-3.87 0h1.93v1.9H916z"/></defs><use xlink:href="#da" transform="translate(-914 -922)"/></symbol><symbol viewBox="0 0 51 47" id="tractor" xmlns="http://www.w3.org/2000/svg"><defs><path id="ea" d="M739.7 954.12a9.1 9.1 0 0 1-2.7 6.48 8.89 8.89 0 0 1-12.67-.12 9.1 9.1 0 0 1 6.4-15.43 8.89 8.89 0 0 1 6.4 2.72 9.1 9.1 0 0 1 2.57 6.35zm-2.91 0c0-.4.31-.71.7-.71h.77a7.66 7.66 0 0 0-1.71-4.17l-.54.55a.7.7 0 0 1-1 0 .72.72 0 0 1 0-1l.54-.55a7.48 7.48 0 0 0-4.12-1.73v.77a.7.7 0 0 1-.7.71.7.7 0 0 1-.7-.71v-.77a7.48 7.48 0 0 0-4.12 1.73l.53.54a.7.7 0 0 1 0 1 .7.7 0 0 1-1 0l-.53-.54a7.66 7.66 0 0 0-1.71 4.17h.76c.4 0 .7.32.7.71a.7.7 0 0 1-.7.72h-.76a7.66 7.66 0 0 0 1.7 4.16l.55-.54a.7.7 0 0 1 1 0c.27.28.27.73 0 1l-.54.55a7.48 7.48 0 0 0 4.11 1.73v-.77c0-.4.32-.72.7-.72.4 0 .71.32.71.72v.77a7.48 7.48 0 0 0 4.12-1.73l-.54-.54a.72.72 0 0 1 0-1.01.7.7 0 0 1 1 0l.54.54a7.66 7.66 0 0 0 1.7-4.16h-.76a.7.7 0 0 1-.7-.72zm-1.97-1.8a4.53 4.53 0 0 1-4.1 6.32 4.5 4.5 0 0 1-4.45-4.52 4.5 4.5 0 0 1 6.24-4.14c.36.16.52.58.36.94a.7.7 0 0 1-.92.37 3.07 3.07 0 0 0-4.27 2.83c0 1.7 1.36 3.1 3.05 3.1a3.07 3.07 0 0 0 2.8-4.33.72.72 0 0 1 .36-.94.7.7 0 0 1 .93.37zm-2.64 1.8c0 .82-.65 1.48-1.45 1.48-.8 0-1.46-.66-1.46-1.48 0-.8.66-1.47 1.46-1.47.8 0 1.45.66 1.45 1.47zm-1.4 0a.05.05 0 0 0-.05-.04.05.05 0 0 0-.05.04c0 .03.02.05.05.05.02 0 .04-.02.04-.05zm30.71 6.85c0 1.65-1.33 2.99-2.96 2.99a2.98 2.98 0 0 1-2.96-3c0-1.65 1.33-2.99 2.96-2.99.4 0 .7.32.7.71a.7.7 0 0 1-.7.72c-.85 0-1.55.7-1.55 1.57 0 .86.7 1.56 1.55 1.56.86 0 1.55-.7 1.55-1.56 0-.4.32-.72.7-.72.4 0 .71.32.71.72zm4.51-6.85v3.8c0 1.01-.66 1.86-1.57 2.14a6 6 0 0 1-5.9 6.94 6 6 0 0 1-5.9-6.84h-6.12c-.8 0-1.46-.66-1.46-1.48v-.04h-2.3a.7.7 0 0 1-.1-.01 12.76 12.76 0 0 1-11.92 8.37A12.82 12.82 0 0 1 718 954.12a12.9 12.9 0 0 1 3-8.3v-6.19h-1.54a.7.7 0 0 1-.7-.71c0-.4.3-.71.7-.71h3.05l.01-.2 2.83-13.6a.71.71 0 0 1-.59-.7c0-.4.32-.71.7-.71h22.55c.4 0 .7.32.7.71a.7.7 0 0 1-.7.72h-.04l3.62 16.12 1.6.18-2.82-12.6a3 3 0 0 1 .79-2.77l1.5-1.51a.7.7 0 0 1 1 0c.27.28.27.73 0 1l-1.5 1.52c-.38.38-.54.92-.42 1.45l2.94 13.08 5 .58a5.38 5.38 0 0 1 4.82 5.23v5.3c.87.3 1.5 1.13 1.5 2.11zm-2.91-6.13h-.8a.05.05 0 0 0-.05.05v.76c0 .03.03.05.05.05h.8zm-3.58-5.1l-8.53-.98H740.8a15.96 15.96 0 0 1 5.5 9.98h16.78v-1.62h-.8c-.8 0-1.46-.66-1.46-1.47v-.76c0-.81.66-1.47 1.46-1.47h.8a3.98 3.98 0 0 0-3.58-3.67zm-23.47-3.75v-11.67h-3.43c-1.15 0-2.13.87-2.28 2.02l-1.15 8.72h1.55c1.86 0 3.65.32 5.3.93zm1.4.59c.49.23.96.49 1.42.77a.7.7 0 0 1 .13-.01h11.14l-2.92-13.02h-9.77v12.26zm-13.52-1.52h3.85v-.15l1.16-8.76a3.74 3.74 0 0 1 3.68-3.26h14.28l-.32-1.4a.72.72 0 0 1-.01-.21h-19.77zm18.13 15.91a11.4 11.4 0 0 0-11.32-11.45 11.4 11.4 0 0 0-11.32 11.45 11.4 11.4 0 0 0 11.32 11.45 11.4 11.4 0 0 0 11.32-11.45zm3 3.1v-3.1c0-7.99-6.42-14.49-14.32-14.49h-8.32v4.75a12.59 12.59 0 0 1 8.32-3.13 12.82 12.82 0 0 1 12.36 15.96zm18.04 3.75c0-2.55-2.05-4.61-4.56-4.61a4.59 4.59 0 0 0-4.55 4.6c0 2.55 2.04 4.61 4.55 4.61a4.59 4.59 0 0 0 4.56-4.6zm1.5-6.85a.8.8 0 0 0-.8-.8h-17.35l.02.8v4.56c0 .03.02.05.05.05h6.48a5.97 5.97 0 0 1 5.54-3.8c2.5 0 4.63 1.56 5.52 3.76a.8.8 0 0 0 .54-.77z"/></defs><use xlink:href="#ea" transform="translate(-716 -921)"/></symbol><symbol viewBox="0 0 46 45" id="transport-3" xmlns="http://www.w3.org/2000/svg"><defs><path id="fa" d="M619 934.63v12.9c0 .43-.34.77-.75.77h-3.02a.76.76 0 0 1-.76-.76v-2.28h-1.5v2.28c0 .42-.34.76-.76.76H592.6a.75.75 0 0 1-.4-.11l-3.58-2.17h-3.57a.76.76 0 0 1-.75-.76v-2.28h-1.51v2.28c0 .42-.34.76-.75.76h-3.02a.76.76 0 0 1-.76-.76v-12.9c0-.43.34-.77.76-.77h3.02c.41 0 .75.34.75.76v2.28h1.5v-2.28c0-.42.35-.76.76-.76h3.63l3.64-1.46a.75.75 0 0 1 .28-.06h3.77v-1.51h-.76a.76.76 0 0 1-.75-.76v-3.04c0-.42.34-.76.75-.76h12.07c.42 0 .76.34.76.76v3.04c0 .42-.34.76-.76.76h-.75v1.51h3.02c.2 0 .39.08.53.23l2.26 2.27c.15.15.22.34.22.54v3.8h1.51v-2.28c0-.42.34-.76.76-.76h3.02c.41 0 .75.34.75.76zm-37.72-1.52h-1.5v11.39h1.5zm3.02 3.04h-1.51v5.31h1.5zm3.77-3.04h-2.26v11.39h2.26zm3.77-1.16l-2.26.92v11.96l2.26 1.37zm4.53-4.91h10.56v-1.52h-10.56zm1.5 1.52v1.51h7.55v-1.51zm13.59 16.7h-18.1v1.52h18.1zm0-11.84l-1.82-1.83h-16.29v12.15h18.1zm3.01 5h-1.5v5.32h1.5zm3.02-3.03H616v11.39h1.5zm-22.63-2.28h1.5v1.52h-1.5zm3.02 0h1.5v1.52h-1.5zm3.01 0h1.51v1.52h-1.5zm14.85 25.07c-.3.68-.85 1.22-1.54 1.48l-11.65 4.47a12.97 12.97 0 0 1-9.6-.1l-5.63-2.36v.3c0 .41-.34.75-.76.75h-6.03a.76.76 0 0 1-.76-.76H576v-1.52h3.77v-7.59H576v-1.52h3.77c0-.42.34-.76.76-.76h6.03c.42 0 .76.34.76.76h1.9c2.74 0 5.44.65 7.89 1.87.53.27 1.11.4 1.7.41h5.86a2.65 2.65 0 0 1 2.61 2.94l4.9-2.1c.67-.28 1.43-.29 2.1 0a2.83 2.83 0 0 1 1.46 3.73zm-29.93-6.09h-4.53v9.11h4.53zm28.57 4.47a1.25 1.25 0 0 0-.68-.7c-.3-.13-.64-.13-.94 0l-6.3 2.69c-.56.23-1.15.36-1.75.37h-9.1v-1.51h9.01l.3-.03a1.14 1.14 0 0 0-.25-2.25h-5.86c-.82 0-1.64-.2-2.38-.57a16.11 16.11 0 0 0-7.2-1.7h-1.91v7.17l6.2 2.6a11.47 11.47 0 0 0 8.49.09l11.65-4.48c.31-.12.57-.36.7-.67.14-.32.15-.68.02-1z"/></defs><use xlink:href="#fa" transform="translate(-574 -922)"/></symbol><symbol viewBox="0 0 53 43" id="truck" xmlns="http://www.w3.org/2000/svg"><defs><path id="ga" d="M1181.29 949.37a5.67 5.67 0 0 1 5.65 5.68 5.67 5.67 0 0 1-5.65 5.7 5.67 5.67 0 0 1-5.64-5.7 5.67 5.67 0 0 1 5.64-5.68zm0 9.75a4.05 4.05 0 0 0 4.03-4.07c0-2.24-1.8-4.06-4.03-4.06a4.05 4.05 0 0 0-4.03 4.06c0 2.25 1.8 4.06 4.03 4.07zm-18.55-4.07a5.67 5.67 0 0 1-5.64 5.7 5.67 5.67 0 0 1-5.65-5.7 5.67 5.67 0 0 1 5.65-5.68 5.67 5.67 0 0 1 5.64 5.68zm-5.64-4.06a4.05 4.05 0 0 0-4.04 4.06 4.06 4.06 0 0 0 4.04 4.07 4.05 4.05 0 0 0 4.03-4.07c0-2.24-1.8-4.06-4.03-4.06zm-11.3-22.74h29.47l1.25-2.77a.8.8 0 0 1 .74-.48h4.84v1.62h-4.32l-5.13 11.38h6.22v-8.94a.8.8 0 0 1 .8-.81h8.07a4.05 4.05 0 0 1 4.03 4.06v5.77a4.06 4.06 0 0 1 3.23 3.98v6.5c0 .21-.09.42-.24.57l-4.69 4.73a8.9 8.9 0 0 1-8.83 10.09 8.9 8.9 0 0 1-8.78-8.08h-6.53a8.89 8.89 0 0 1-9.63 8.1 8.92 8.92 0 0 1-8.04-9.71 8.93 8.93 0 0 1 5.23-7.36l3.65-4.9-11.5-2.4a.81.81 0 0 1-.64-.8v-9.74a.8.8 0 0 1 .8-.81zm33.07 11.37h-6.96l-.73 1.63h7.7zm0 3.25h-8.42l-.52 1.15a.8.8 0 0 1-.9.46l-6.8-1.42-2.32 3.53c.86.29 1.67.71 2.4 1.25l1.47-1.48a.8.8 0 0 1 .57-.24h9.68a.8.8 0 0 1 .57.24l1.48 1.48a8.82 8.82 0 0 1 2.8-1.37zm11.3-9.75h-6.46V938h6.45zm1.6 16.72l1.62-1.62v-5.35h-1.62zm-1.6 1.63v-9.41a.8.8 0 0 1 .8-.81h2.27a2.42 2.42 0 0 0-2.27-1.63h-8.07a.8.8 0 0 1-.8-.81v-6.5a.8.8 0 0 1 .8-.81h7.11a2.42 2.42 0 0 0-2.27-1.63h-7.26v16.3a8.88 8.88 0 0 1 9.14 5.85zm-8.88 10.9c4 0 7.26-3.28 7.26-7.32a7.28 7.28 0 0 0-7.26-7.3c-4 0-7.26 3.27-7.26 7.3a7.3 7.3 0 0 0 7.26 7.32zm-11.29-8.13h2.46c.18-2 1.03-3.87 2.4-5.32l-1.16-1.18h-3.7zm-1.61 0v-6.5h-3.7l-1.16 1.18a8.93 8.93 0 0 1 2.4 5.32zm-18.55.81a7.31 7.31 0 0 0 7.26 7.37 7.31 7.31 0 0 0 7.3-7.3 7.31 7.31 0 0 0-9.88-6.89 7.31 7.31 0 0 0-4.68 6.82zm6.2-8.86c.72-.1 1.46-.1 2.19.01l2.3-3.5-1.64-.34zm-9.43-8.04l22.12 4.6 4.34-9.63h-26.46zm0-6.65h27.2l.73-1.63h-27.93zm38.71 11.37h-3.22v-1.62h3.22z"/></defs><use xlink:href="#ga" transform="translate(-1143 -923)"/></symbol></svg>