<?xml version="1.0" encoding="UTF-8" standalone="no"?>
<!-- Created with Inkscape (http://www.inkscape.org/) -->

<svg
   xmlns:dc="http://purl.org/dc/elements/1.1/"
   xmlns:cc="http://creativecommons.org/ns#"
   xmlns:rdf="http://www.w3.org/1999/02/22-rdf-syntax-ns#"
   xmlns:svg="http://www.w3.org/2000/svg"
   xmlns="http://www.w3.org/2000/svg"
   xmlns:sodipodi="http://sodipodi.sourceforge.net/DTD/sodipodi-0.dtd"
   xmlns:inkscape="http://www.inkscape.org/namespaces/inkscape"
   version="1.1"
   id="svg10"
   width="79"
   height="75"
   viewBox="0 0 79 75"
   sodipodi:docname="logo.svg"
   inkscape:version="0.92.1 r15371">
  <metadata
     id="metadata16">
    <rdf:RDF>
      <cc:Work
         rdf:about="">
        <dc:format>image/svg+xml</dc:format>
        <dc:type
           rdf:resource="http://purl.org/dc/dcmitype/StillImage" />
        <dc:title></dc:title>
      </cc:Work>
    </rdf:RDF>
  </metadata>
  <defs
     id="defs14" />
  <sodipodi:namedview
     pagecolor="#ffffff"
     bordercolor="#666666"
     borderopacity="1"
     objecttolerance="10"
     gridtolerance="10"
     guidetolerance="10"
     inkscape:pageopacity="0"
     inkscape:pageshadow="2"
     inkscape:window-width="1222"
     inkscape:window-height="671"
     id="namedview12"
     showgrid="false"
     inkscape:zoom="7.1466667"
     inkscape:cx="39.5"
     inkscape:cy="48.69403"
     inkscape:window-x="23"
     inkscape:window-y="18"
     inkscape:window-maximized="0"
     inkscape:current-layer="svg10" />
  <g
     id="g3690">
    <path
       style="fill:#ffffff"
       d="m 0,71 v -4 h 6 6 v 4 4 H 6 0 Z M 67,4 V 0 h 6 6 v 4 4 h -6 -6 z"
       id="path3704"
       inkscape:connector-curvature="0" />
    <path
       style="fill:#fefefe"
       d="M 12,71 V 67 H 39.5 67 V 37.5 8 h 6 6 V 41.5 75 H 45.5 12 Z"
       id="path3702"
       inkscape:connector-curvature="0" />
    <path
       style="fill:#f4f4f4"
       d="M 22.20557,42.952402 C 16.879933,40.815061 15.643356,29.86597 20.218976,25.362393 23.433993,22.197997 32,21.603896 32,24.545313 c 0,1.200067 -0.726098,1.411017 -3.25,0.944207 -4.434986,-0.820276 -6.755917,1.135702 -7.445169,6.274461 -0.406646,3.031772 -0.08334,4.925116 1.166825,6.833104 1.50827,2.301912 2.227809,2.572435 5.628838,2.116262 C 30.898782,40.338017 32,40.556826 32,41.488168 c 0,2.445556 -5.354642,3.246057 -9.79443,1.464234 z M 37.75,43.310674 C 36.7875,43.059147 36,42.25099 36,41.514771 c 0,-0.95296 1.368388,-1.291939 4.75,-1.176676 3.99684,0.136233 4.75,-0.12854 4.75,-1.66986 0,-1.017638 -1.777799,-3.039127 -4,-4.548297 -3.364343,-2.284835 -4,-3.262915 -4,-6.15476 0,-2.727522 0.544233,-3.699073 2.632868,-4.70013 C 43.361793,21.717465 49,22.652961 49,24.736291 c 0,1.145355 -0.771086,1.341634 -3.361511,0.855668 -2.471615,-0.463678 -3.724005,-0.193845 -4.730804,1.019274 -1.189364,1.433096 -1.059299,1.862696 0.989822,3.269332 C 45.756228,32.529418 50,36.765581 50,37.968531 c 0,0.617308 -1.104545,2.226924 -2.454545,3.576924 -2.351774,2.351773 -5.428954,2.906306 -9.795455,1.765219 z"
       id="path3700"
       inkscape:connector-curvature="0" />
    <path
       style="fill:#98b6c8"
       d="m 32.078947,41.416667 c 0.04798,-1.164943 0.284941,-1.4019 0.604167,-0.604167 0.288871,0.721875 0.253344,1.584375 -0.07895,1.916667 -0.332292,0.332291 -0.568641,-0.258334 -0.52522,-1.3125 z m -11,-8 c 0.04798,-1.164943 0.284941,-1.4019 0.604167,-0.604167 0.288871,0.721875 0.253344,1.584375 -0.07895,1.916667 -0.332292,0.332291 -0.568641,-0.258334 -0.52522,-1.3125 z"
       id="path3698"
       inkscape:connector-curvature="0" />
    <path
       style="fill:#6b9cb7"
       d="m 25.8125,44.316886 c 0.721875,-0.288871 1.584375,-0.253344 1.916667,0.07895 0.332291,0.332292 -0.258334,0.568641 -1.3125,0.52522 -1.164943,-0.04798 -1.4019,-0.284941 -0.604167,-0.604167 z m 14.9375,0.02083 c 0.6875,-0.277412 1.8125,-0.277412 2.5,0 0.6875,0.277413 0.125,0.504386 -1.25,0.504386 -1.375,0 -1.9375,-0.226973 -1.25,-0.504386 z M 16.078947,33.416667 c 0.04798,-1.164943 0.284941,-1.4019 0.604167,-0.604167 0.288871,0.721875 0.253344,1.584375 -0.07895,1.916667 -0.332292,0.332291 -0.568641,-0.258334 -0.52522,-1.3125 z"
       id="path3696"
       inkscape:connector-curvature="0" />
    <path
       style="fill:#2f7ea4"
       d="m 18,25.622445 c 0,-0.207656 0.7875,-0.995156 1.75,-1.75 C 21.336056,22.628574 21.371426,22.663944 20.127555,24.25 18.821186,25.915748 18,26.445479 18,25.622445 Z"
       id="path3694"
       inkscape:connector-curvature="0" />
    <path
       style="fill:#10739d"
       d="M 0,33.5 V 0 H 33.5 67 V 33.5 67 H 33.5 0 Z M 29.875,44.375 C 32.278433,43.894313 33,43.223581 33,41.470157 c 0,-2.064761 -0.360469,-2.231495 -3.820922,-1.767351 -2.760679,0.370285 -4.286838,0.04658 -5.5,-1.166585 -2.248559,-2.248559 -2.127868,-7.760761 0.233742,-10.675437 1.721379,-2.12451 2.222735,-2.244019 5.009405,-1.194098 2.753199,1.03731 3.217882,0.940038 4.190425,-0.877174 1.454151,-2.717107 -0.233102,-3.754221 -6.140144,-3.774199 -5.770934,-0.01952 -8.633944,2.013648 -10.004897,7.104977 -1.798368,6.678629 0.496377,12.873153 5.532391,14.934353 2.549101,1.043327 3.544054,1.086546 7.375,0.320357 z m 16.715909,-0.848538 c 3.341157,-1.396024 3.510429,-1.697161 3.217882,-5.724661 -0.275473,-3.79243 -0.740389,-4.492524 -4.308791,-6.488386 -2.2,-1.230494 -4,-2.816896 -4,-3.525338 0,-0.83609 1.403603,-1.288077 4,-1.288077 3.333333,0 4,-0.333333 4,-2 0,-1.701376 -0.766038,-2.044512 -5.130458,-2.298114 C 38.61176,21.867321 36,23.517393 36,27.489641 c 0,3.920689 1.073168,5.507039 5.123335,7.57328 C 43.255501,36.150671 45,37.495625 45,38.051709 45,39.766955 41.84884,40.381419 38.852536,39.25044 36.132156,38.223612 36,38.305469 36,41.017313 c 0,2.153831 0.545771,2.948705 2.25,3.276954 4.075,0.784879 4.780173,0.719966 8.340909,-0.767805 z"
       id="path3692"
       inkscape:connector-curvature="0" />
  </g>
</svg>
