<svg xmlns="http://www.w3.org/2000/svg" width="79" height="75" viewBox="0 0 79 75"><path d="M0 71v-4h12v8H0zM67 4V0h12v8H67z" fill="#fff"/><path d="M12 71v-4h55V8h12v67H12z" fill="#fefefe"/><path d="M22.206 42.952c-5.326-2.137-6.563-13.086-1.987-17.59C23.434 22.198 32 21.604 32 24.545c0 1.2-.726 1.411-3.25.945-4.435-.82-6.756 1.135-7.445 6.274-.407 3.032-.084 4.925 1.167 6.833 1.508 2.302 2.227 2.573 5.628 2.116 2.799-.375 3.9-.156 3.9.775 0 2.446-5.355 3.246-9.794 1.464zm15.544.359c-.962-.252-1.75-1.06-1.75-1.796 0-.953 1.368-1.292 4.75-1.177 3.997.136 4.75-.128 4.75-1.67 0-1.017-1.778-3.039-4-4.548-3.364-2.285-4-3.263-4-6.155 0-2.727.544-3.699 2.633-4.7C43.362 21.717 49 22.653 49 24.736c0 1.146-.771 1.342-3.362.856-2.471-.464-3.724-.194-4.73 1.02-1.19 1.432-1.06 1.862.99 3.269C45.756 32.529 50 36.766 50 37.969c0 .617-1.105 2.226-2.455 3.576-2.351 2.352-5.428 2.907-9.795 1.766z" fill="#f4f4f4"/><path d="M32.079 41.417c.048-1.165.285-1.402.604-.605.289.722.253 1.585-.079 1.917-.332.332-.568-.258-.525-1.312zm-11-8c.048-1.165.285-1.402.604-.605.289.722.253 1.585-.079 1.917-.332.332-.568-.258-.525-1.312z" fill="#98b6c8"/><path d="M25.813 44.317c.721-.289 1.584-.253 1.916.079.332.332-.258.568-1.312.525-1.165-.048-1.402-.285-.605-.604zm14.937.02c.688-.277 1.813-.277 2.5 0 .688.278.125.505-1.25.505s-1.938-.227-1.25-.504zm-24.671-10.92c.048-1.165.285-1.402.604-.605.289.722.253 1.585-.079 1.917-.332.332-.568-.258-.525-1.312z" fill="#6b9cb7"/><path d="M18 25.622c0-.207.787-.995 1.75-1.75 1.586-1.243 1.621-1.208.378.378C18.82 25.916 18 26.445 18 25.622z" fill="#2f7ea4"/><path d="M0 33.5V0h67v67H0zm29.875 10.875C32.278 43.895 33 43.224 33 41.47c0-2.065-.36-2.231-3.82-1.767-2.762.37-4.288.046-5.5-1.167-2.25-2.248-2.129-7.76.233-10.675 1.721-2.125 2.223-2.244 5.01-1.194 2.752 1.037 3.217.94 4.19-.877 1.454-2.718-.233-3.755-6.14-3.775-5.771-.02-8.634 2.014-10.005 7.105-1.799 6.679.496 12.873 5.532 14.935 2.55 1.043 3.544 1.086 7.375.32zm16.716-.849c3.341-1.396 3.51-1.697 3.218-5.724-.276-3.793-.74-4.493-4.309-6.489-2.2-1.23-4-2.816-4-3.525 0-.836 1.404-1.288 4-1.288 3.333 0 4-.333 4-2 0-1.701-.766-2.045-5.13-2.298-5.758-.335-8.37 1.315-8.37 5.288 0 3.92 1.073 5.507 5.123 7.573C43.256 36.15 45 37.496 45 38.052c0 1.715-3.151 2.33-6.147 1.198-2.72-1.026-2.853-.945-2.853 1.767 0 2.154.546 2.949 2.25 3.277 4.075.785 4.78.72 8.34-.768z" fill="#10739d"/></svg>