<svg xmlns="http://www.w3.org/2000/svg" xmlns:xlink="http://www.w3.org/1999/xlink" width="39" height="49" viewBox="0 0 39 49"><defs><path id="krzta" d="M892.75 847.8v4.6c0 .42-.34.77-.75.77h-4.5a.76.76 0 0 1-.75-.77v-4.6c0-.42.34-.77.75-.77h4.5c.41 0 .75.35.75.77zm-1.5.77h-3v3.06h3zm9-8.44v12.27c0 .42-.34.77-.75.77H895a.76.76 0 0 1-.75-.77v-12.27c0-.42.34-.76.75-.76h4.5c.41 0 .75.34.75.76zm-1.5.77h-3v10.73h3zm-13.5 6.9v4.6c0 .42-.34.77-.75.77H880a.76.76 0 0 1-.75-.77v-4.6c0-.42.34-.77.75-.77h4.5c.41 0 .75.35.75.77zm-1.5.77h-3v3.06h3zm-6-.77v4.6c0 .42-.34.77-.75.77h-4.5a.76.76 0 0 1-.75-.77v-4.6c0-.42.34-.77.75-.77h4.5c.41 0 .75.35.75.77zm-1.5.77h-3v3.06h3zm16.5-8.44v4.6c0 .43-.34.77-.75.77h-4.5a.76.76 0 0 1-.75-.77v-4.6c0-.42.34-.76.75-.76h4.5c.41 0 .75.34.75.76zm-1.5.77h-3v3.07h3zm-6-.77v4.6c0 .43-.34.77-.75.77H880a.76.76 0 0 1-.75-.77v-4.6c0-.42.34-.76.75-.76h4.5c.41 0 .75.34.75.76zm-1.5.77h-3v3.07h3zm-6-.77v4.6c0 .43-.34.77-.75.77h-4.5a.76.76 0 0 1-.75-.77v-4.6c0-.42.34-.76.75-.76h4.5c.41 0 .75.34.75.76zm-1.5.77h-3v3.07h3zm16.5-8.43v4.6c0 .42-.34.76-.75.76h-4.5a.76.76 0 0 1-.75-.76v-4.6c0-.43.34-.77.75-.77h4.5c.41 0 .75.34.75.77zm-1.5.76h-3v3.07h3zm9-.76v4.6c0 .42-.34.76-.75.76H895a.76.76 0 0 1-.75-.76v-4.6c0-.43.34-.77.75-.77h4.5c.41 0 .75.34.75.77zm-1.5.76h-3v3.07h3zm-13.5-.76v4.6c0 .42-.34.76-.75.76H880a.76.76 0 0 1-.75-.76v-4.6c0-.43.34-.77.75-.77h4.5c.41 0 .75.34.75.77zm-1.5.76h-3v3.07h3zm-6-.76v4.6c0 .42-.34.76-.75.76h-4.5a.76.76 0 0 1-.75-.76v-4.6c0-.43.34-.77.75-.77h4.5c.41 0 .75.34.75.77zm-1.5.76h-3v3.07h3zm16.5-8.43v4.6c0 .42-.34.77-.75.77h-4.5a.76.76 0 0 1-.75-.77v-4.6c0-.42.34-.77.75-.77h4.5c.41 0 .75.35.75.77zm-1.5.77h-3v3.06h3zm9-.77v4.6c0 .42-.34.77-.75.77H895a.76.76 0 0 1-.75-.77v-4.6c0-.42.34-.77.75-.77h4.5c.41 0 .75.35.75.77zm-1.5.77h-3v3.06h3zm-13.5-.77v4.6c0 .42-.34.77-.75.77h-12a.76.76 0 0 1-.75-.77v-4.6c0-.42.34-.77.75-.77h12c.41 0 .75.35.75.77zm-1.5.77h-10.5v3.06h10.5zm16.5-9.97v6.13c0 .43-.34.77-.75.77h-27a.76.76 0 0 1-.75-.77v-6.13c0-.42.34-.77.75-.77h27c.41 0 .75.35.75.77zm-1.5.77h-25.5v4.6h25.5zm5.25-4.6v44.46c0 .43-.34.77-.75.77h-34.5a.76.76 0 0 1-.75-.77v-44.46c0-.43.34-.77.75-.77h34.5c.41 0 .75.34.75.77zm-1.5.76h-33v42.94h33zm-6.75 5.37h1.5v1.53h-1.5zm-3 0h1.5v1.53h-1.5zm-3 0h1.5v1.53h-1.5z"/></defs><g><g transform="translate(-866 -809)"><use fill="#051e46" xlink:href="#krzta"/></g></g></svg>