<svg xmlns="http://www.w3.org/2000/svg" xmlns:xlink="http://www.w3.org/1999/xlink" width="50" height="50" viewBox="0 0 50 50"><defs><path id="3su1a" d="M436 815.06v32.92c0 .98-.8 1.78-1.78 1.78h-1.97a.75.75 0 1 1 0-1.5h1.97c.15 0 .28-.13.28-.28v-32.92a.29.29 0 0 0-.28-.29h-6.88v3.56a.75.75 0 1 1-1.5 0v-6.83h-26.68v30.66h2.5v-6.13c0-.41.34-.75.75-.75h11.87c.42 0 .75.34.75.75v6.13h5.9a.75.75 0 1 1 0 1.5h-28.08a.75.75 0 1 1 0-1.5h4.81v-27.39h-6.88a.29.29 0 0 0-.28.29v32.92c0 .15.13.28.28.28h30.14a.75.75 0 1 1 0 1.5h-3.08v5.74h3.75a.75.75 0 1 1 0 1.5h-21.5a.75.75 0 1 1 0-1.5h7.07v-5.74h-16.38c-.98 0-1.78-.8-1.78-1.78v-32.92c0-.99.8-1.79 1.78-1.79h6.88v-2.52c0-.41.34-.75.75-.75h28.18c.41 0 .75.34.75.75v2.52h6.88c.98 0 1.78.8 1.78 1.79zm-19.66 34.7h-7.68v5.74h7.68zm-13.18-7.6h10.37v-5.38h-10.37zM430 827.9v25.69a3.42 3.42 0 0 1-6.83 0v-25.62-.07l.01-.04v-.04l.02-.04v-.03l.02-.04v-.02l.01-.01 2.66-6.63a.75.75 0 0 1 1.4 0l2.65 6.63v.01l.01.02.02.04v.03l.02.04v.08zm-5.33 22.24h3.83v-21.42h-3.83zm.36-22.92h3.11l-1.55-3.87zm3.47 26.37v-1.95h-3.83v1.95a1.92 1.92 0 0 0 3.83 0zm-26.84-33.56v-5.28c0-.41.34-.75.75-.75h20.18c.41 0 .75.34.75.75v5.28c0 .41-.34.75-.75.75H402.4a.75.75 0 0 1-.75-.75zm1.5-.75h18.68v-3.78h-18.68zm20.18 3.75c0 .41-.34.75-.75.75H402.4a.75.75 0 1 1 0-1.5h20.18c.41 0 .75.34.75.75zm-8.3 4c0 .41-.34.75-.76.75h-11.87a.75.75 0 1 1 0-1.5h11.87c.42 0 .75.34.75.75zm6.78 0c0 .41-.34.75-.75.75h-3.79a.75.75 0 1 1 0-1.5h3.79c.41 0 .75.34.75.75zm-6.79 3c0 .41-.33.75-.75.75h-11.87a.75.75 0 1 1 0-1.5h11.87c.42 0 .75.34.75.75zm6.64 0c0 .41-.33.75-.75.75h-3.64a.75.75 0 1 1 0-1.5h3.64c.42 0 .75.34.75.75zm-6.64 3c0 .41-.33.75-.75.75h-11.87a.75.75 0 1 1 0-1.5h11.87c.42 0 .75.34.75.75zm6.64 0c0 .41-.33.75-.75.75h-3.64a.75.75 0 1 1 0-1.5h3.64c.42 0 .75.34.75.75z"/></defs><g><g transform="translate(-387 -808)"><use fill="#051e46" xlink:href="#3su1a"/></g></g></svg>