<svg xmlns="http://www.w3.org/2000/svg" xmlns:xlink="http://www.w3.org/1999/xlink" width="41" height="55" viewBox="0 0 41 55"><defs><path id="mh3za" d="M1339 813.11v46.08c0 .45-.36.81-.81.81h-36.38a.81.81 0 0 1-.81-.8V813.1c0-.44.36-.8.81-.8h12.42A5.98 5.98 0 0 1 1320 808a5.98 5.98 0 0 1 5.77 4.3h12.42c.45 0 .81.37.81.81zm-26.85 5.66h15.7v-4.85h-2.81-.01l-.06-.01-.03-.01a.7.7 0 0 1-.04-.01l-.04-.01a.85.85 0 0 1-.17-.08l-.03-.02-.03-.03-.03-.02a.88.88 0 0 1-.1-.1l-.01-.02a.9.9 0 0 1-.04-.04l-.01-.02a.69.69 0 0 1-.03-.04l-.01-.03a.85.85 0 0 1-.07-.22v-.01a4.36 4.36 0 0 0-4.33-3.64 4.36 4.36 0 0 0-4.32 3.64l-.02.06v.03a.7.7 0 0 1-.02.04l-.01.04-.02.03c0 .01 0 .03-.02.04l-.01.03-.03.04-.01.02-.03.04-.02.02a.73.73 0 0 1-.03.04l-.02.02-.04.03-.03.02-.03.03-.03.02a.62.62 0 0 1-.04.02l-.03.01-.04.02-.03.02-.04.01-.03.01a.92.92 0 0 1-.21.03H1312.15zm-1.62.8v-2.2h-4.44v38h19.6V848c0-.45.36-.81.8-.81h7.42v-29.82h-4.44v2.2c0 .45-.36.81-.8.81h-17.33a.81.81 0 0 1-.81-.8zm16.78 29.23v5.43l5.45-5.43zm10.07 9.58v-44.46h-7.9v1.83h5.24c.45 0 .82.36.82.8V848.09l-.01.03-.01.04-.01.04-.01.04-.01.04-.02.03-.01.04-.02.04-.02.03-.02.03c0 .02-.02.03-.03.04l-.02.03a.86.86 0 0 1-.05.05l-8.23 8.19a.81.81 0 0 1-.06.05l-.03.02-.03.03-.04.02-.03.02-.04.02-.03.01-.04.02-.04.01-.04.01-.04.01h-.04l-.03.01H1305.28a.81.81 0 0 1-.82-.8v-39.62c0-.45.37-.8.82-.8h5.25v-1.84h-7.9v44.46zm-7.04-24.6c0 5.67-4.64 10.29-10.34 10.29s-10.34-4.62-10.34-10.29c0-5.66 4.64-10.28 10.34-10.28s10.34 4.62 10.34 10.28zm-1.62 0a8.7 8.7 0 0 0-8.72-8.66 8.7 8.7 0 0 0-8.72 8.66 8.7 8.7 0 0 0 8.72 8.67 8.7 8.7 0 0 0 8.72-8.67zm-3.82-3.08l-7.57 7.53a.81.81 0 0 1-1.15 0l-2.6-2.58a.8.8 0 0 1 0-1.14.82.82 0 0 1 1.15 0l2.02 2 7-6.96a.82.82 0 0 1 1.15 0 .8.8 0 0 1 0 1.15z"/></defs><g><g transform="translate(-1299 -806)"><use fill="#051e46" xlink:href="#mh3za"/></g></g></svg>