<svg xmlns="http://www.w3.org/2000/svg" xmlns:xlink="http://www.w3.org/1999/xlink" width="61" height="38" viewBox="0 0 61 38"><defs><path id="f06ta" d="M1322.52 956a2.92 2.92 0 0 1-5.54 0 2.85 2.85 0 0 1 0-2c.42-1.2 1.52-2 2.77-2 1.24 0 2.35.8 2.77 2 .24.65.24 1.36 0 2zm-1.79-1a1 1 0 0 0-.98-1 1 1 0 0 0-.98 1 1 1 0 0 0 .98 1 1 1 0 0 0 .98-1zm5.9-23v10h-17.7v-10zm-9.83 2h-5.9v6h5.9zm7.87 0h-5.9v6h5.9zm39.33 7.4V953c0 1.66-1.32 3-2.95 3h-5a6.93 6.93 0 0 1-5.82 5.93 6.9 6.9 0 0 1-7.79-5.93h-15.89a6.93 6.93 0 0 1-5.82 5.93 6.9 6.9 0 0 1-7.78-5.93h-5a2.98 2.98 0 0 1-2.95-3v-22c0-1.66 1.32-3 2.95-3h48.84c1.19 0 2.27.72 2.72 1.84l4.26 10.4c.15.37.23.76.23 1.16zm-11.8-7.4v6h9.34l-2.46-6zm-27.53 21a4.98 4.98 0 0 0-3.94-4.9 4.92 4.92 0 0 0-5.8 3.91 5 5 0 0 0 3.84 5.9 4.92 4.92 0 0 0 5.9-4.9zm3.93-9h-21.63v7a1 1 0 0 0 .98 1h5a6.93 6.93 0 0 1 5.82-5.92 6.9 6.9 0 0 1 7.78 5.92h2.05zm9.83-12h-7.86v20h7.86zm15.74 21a4.98 4.98 0 0 0-3.94-4.9 4.92 4.92 0 0 0-5.8 3.91 5 5 0 0 0 3.84 5.9 4.92 4.92 0 0 0 5.9-4.9zm7.86-9h-21.63v8h2.04a6.93 6.93 0 0 1 5.83-5.92 6.9 6.9 0 0 1 7.78 5.92h5a1 1 0 0 0 .98-1zm0-4h-19.66v-10h15.9l-.57-1.39a.98.98 0 0 0-.91-.61h-48.84a1 1 0 0 0-.98 1v13h21.63v-12h11.8v12h21.63zm-17.7-8v6h5.9v-6zm7.69 22a2.92 2.92 0 0 1-5.54 0 2.85 2.85 0 0 1 0-2c.42-1.2 1.52-2 2.77-2 1.24 0 2.35.8 2.77 2 .24.65.24 1.36 0 2zm-1.79-1a1 1 0 0 0-.98-1 1 1 0 0 0-.98 1 1 1 0 0 0 .98 1 1 1 0 0 0 .98-1z"/></defs><g><g transform="translate(-1304 -926)"><use  xlink:href="#f06ta"/></g></g></svg>