<svg xmlns="http://www.w3.org/2000/svg" xmlns:xlink="http://www.w3.org/1999/xlink" width="69" height="35" viewBox="0 0 69 35"><defs><path id="zfw1a" d="M450.69 942.36a1.4 1.4 0 0 1-1.4 1.39H423.5a.93.93 0 0 1-.95-.93c0-.52.43-.93.95-.93h3.12v-6.82h-2.56a9.5 9.5 0 0 0-6.7 2.73 17.1 17.1 0 0 1-4.2 3.04c-.18.1-.3.28-.3.49 0 .3.25.56.57.56h3.89c.52 0 .94.41.94.93 0 .51-.42.93-.94.93h-3.9a2.4 2.4 0 1 1-1.13-4.56c1.39-.7 2.64-1.62 3.75-2.7 2.14-2.11 5-3.27 8.02-3.27h11.42c2.28 0 4.48.66 6.37 1.92l6.21 4.15c.39.25.79.5 1.2.72a2.69 2.69 0 0 1 1.42 2.35zm-2.04-.47a.87.87 0 0 0-.29-.26c-.46-.24-.9-.52-1.34-.8l-6.22-4.15a9.55 9.55 0 0 0-5.31-1.6h-6.98v6.8zm-16.87 4.2c0 .5-.42.92-.94.92h-2.9a.93.93 0 0 1-.95-.93c0-.5.43-.92.94-.92h2.9c.53 0 .95.41.95.92zm28.58-6.22l2.42.48a7.74 7.74 0 0 1 5.11 3.54l.3.49c.53.87.81 1.86.81 2.88v4.81c0 1.9-1.56 3.44-3.49 3.44h-1.78a6.24 6.24 0 0 1-6 4.49 6.24 6.24 0 0 1-6-4.49H420.5a6.26 6.26 0 0 1-10.41 2.68 6.1 6.1 0 0 1-1.71-3.18l-3.75-1.65a2.72 2.72 0 0 1-1.63-2.48v-8.99c0-2.02 1.46-3.8 3.46-4.2l1.35-.28a12.4 12.4 0 0 0 6.2-3.3c2.7-2.65 6.27-4.11 10.06-4.11h11.42c2.85 0 5.61.83 7.98 2.41l6.22 4.15c1.11.74 2.79 1.77 4.51 2.1l1.25.25zm-42.21 11.62l-.02-.03a4.23 4.23 0 0 0-.32-.4l-.06-.09a4.42 4.42 0 0 0-.33-.32l-.02-.02-.15-.12a4.41 4.41 0 0 0-5.49-.01h-.01l-.13.12-.04.03-.13.12-.03.03-.01.01-.15.16-.06.06-.1.11-.05.08-.08.1-.06.1a3.97 3.97 0 0 0-.25.4l-.03.06-.07.14-.02.04a4.27 4.27 0 0 0 .88 4.82 4.36 4.36 0 0 0 3.08 1.26c1.17 0 2.26-.44 3.08-1.26a4.27 4.27 0 0 0 .57-5.4zm43.23 0l-.02-.03a4.2 4.2 0 0 0-.32-.4l-.07-.09-.16-.17a4.36 4.36 0 0 0-3.08-1.26 4.36 4.36 0 0 0-3.25 1.43l-.07.08-.08.1a3.96 3.96 0 0 0-.25.34 4.27 4.27 0 0 0 .57 5.4 4.36 4.36 0 0 0 3.08 1.25c1.16 0 2.26-.44 3.08-1.26a4.27 4.27 0 0 0 .57-5.4zm5.74-4.23c0-.68-.19-1.34-.54-1.92l-.3-.5a5.85 5.85 0 0 0-3.86-2.67l-8.58-1.69a15.08 15.08 0 0 1-5.2-2.38l-6.22-4.15a12.45 12.45 0 0 0-6.93-2.1h-11.42c-3.3 0-6.4 1.27-8.73 3.57a14.28 14.28 0 0 1-7.14 3.8l-1.35.28a2.46 2.46 0 0 0-1.97 2.4v8.98c0 .34.2.65.52.79l2.93 1.28a6.06 6.06 0 0 1 .8-2.23v-.01c.1-.17.21-.33.33-.5l.04-.05a6.63 6.63 0 0 1 .33-.4l.06-.06a6.15 6.15 0 0 1 4.61-2.01 6.29 6.29 0 0 1 4.63 2.02l.03.04.18.2v.02a6.03 6.03 0 0 1 1.4 3.69h30.75a6.03 6.03 0 0 1 1.39-3.69l.01-.02.17-.19.04-.05.19-.19.03-.03a6.22 6.22 0 0 1 5.93-1.62c1.09.27 2.08.82 2.89 1.62l.03.03.19.2.04.04.16.2.02.01a6.03 6.03 0 0 1 1.39 3.69h1.54c.89 0 1.6-.71 1.6-1.59h.01zm-50.6 8.57a2.85 2.85 0 0 1-4.87-2c0-.74.3-1.45.83-1.98a2.85 2.85 0 0 1 2.02-.83c.76 0 1.48.3 2.02.83a2.8 2.8 0 0 1 0 3.98zm-1.33-2.67a.97.97 0 0 0-1.66.68c0 .26.1.5.28.68.19.18.43.28.7.28.25 0 .5-.1.68-.28a.95.95 0 0 0 0-1.36zm45.4.68a2.85 2.85 0 0 1-2.85 2.82c-.77 0-1.5-.3-2.03-.83a2.8 2.8 0 0 1 0-3.98 2.86 2.86 0 0 1 2.02-.83 2.85 2.85 0 0 1 2.85 2.82zm-1.89 0c0-.25-.1-.5-.28-.68a.97.97 0 0 0-.7-.28c-.25 0-.5.1-.68.28a.95.95 0 0 0 0 1.36.97.97 0 0 0 1.38 0 .95.95 0 0 0 .28-.68z"/></defs><g><g transform="translate(-401 -926)"><use  xlink:href="#zfw1a"/></g></g></svg>