<svg xmlns="http://www.w3.org/2000/svg" xmlns:xlink="http://www.w3.org/1999/xlink" width="61" height="44" viewBox="0 0 61 44"><defs><path id="uht2a" d="M929.53 965a5.79 5.79 0 0 1-5.72-4.77h-6.84a.96.96 0 0 1-.97-.95v-30.51c0-.53.43-.96.97-.96h36.73c.53 0 .97.43.97.96v5.72h9.66c.33 0 .64.16.82.44l8.7 13.34c.1.16.15.34.15.52v10.49c0 .53-.43.95-.97.95h-4.91a5.79 5.79 0 0 1-5.72 4.77 5.79 5.79 0 0 1-5.72-4.77h-2.96-18.47a5.79 5.79 0 0 1-5.72 4.77zm0-11.44a5.79 5.79 0 0 1 5.72 4.77h17.48v-1.91H936.3v-1.9h16.43v-20.99h-32.86v-1.9h32.86v-1.9h-34.8v24.78h4.84v1.9h-4.84v1.92h5.88a5.79 5.79 0 0 1 5.72-4.77zm3.87 5.72c0-2.1-1.73-3.81-3.87-3.81a3.84 3.84 0 0 0-3.86 3.8c0 2.11 1.73 3.82 3.86 3.82a3.84 3.84 0 0 0 3.87-3.81zm29-5.72a5.79 5.79 0 0 1 5.72 4.77h3.95v-1.91h-2.9v-1.9h2.9v-5.45l-.19-.28h-14.31a.96.96 0 0 1-.97-.95v-8.58c0-.53.43-.96.97-.96h7.48l-1.24-1.9h-9.14v21.93h2.01a5.79 5.79 0 0 1 5.72-4.77zm3.87 5.72c0-2.1-1.74-3.81-3.87-3.81a3.84 3.84 0 0 0-3.87 3.8c0 2.11 1.74 3.82 3.87 3.82a3.84 3.84 0 0 0 3.87-3.81zm-7.74-12.4h12.11l-4.37-6.7v.03h-7.74zm-29.96 11.45h1.93v1.9h-1.93zm32.86 0h1.94v1.9h-1.94zM919.87 924h13.53v1.9h-13.53zm-3.87 0h1.93v1.9H916z"/></defs><g><g transform="translate(-914 -922)"><use  xlink:href="#uht2a"/></g></g></svg>