<svg xmlns="http://www.w3.org/2000/svg" xmlns:xlink="http://www.w3.org/1999/xlink" width="51" height="47" viewBox="0 0 51 47"><defs><path id="k7qpa" d="M739.7 954.12a9.1 9.1 0 0 1-2.7 6.48 8.89 8.89 0 0 1-12.67-.12 9.1 9.1 0 0 1 6.4-15.43 8.89 8.89 0 0 1 6.4 2.72 9.1 9.1 0 0 1 2.57 6.35zm-2.91 0c0-.4.31-.71.7-.71h.77a7.66 7.66 0 0 0-1.71-4.17l-.54.55a.7.7 0 0 1-1 0 .72.72 0 0 1 0-1l.54-.55a7.48 7.48 0 0 0-4.12-1.73v.77a.7.7 0 0 1-.7.71.7.7 0 0 1-.7-.71v-.77a7.48 7.48 0 0 0-4.12 1.73l.53.54c.28.28.28.73 0 1a.7.7 0 0 1-1 0l-.53-.54a7.66 7.66 0 0 0-1.71 4.17h.76c.4 0 .7.32.7.71a.7.7 0 0 1-.7.72h-.76a7.66 7.66 0 0 0 1.7 4.16l.55-.54a.7.7 0 0 1 1 0c.27.28.27.73 0 1l-.54.55a7.48 7.48 0 0 0 4.11 1.73v-.77c0-.4.32-.72.7-.72.4 0 .71.32.71.72v.77a7.48 7.48 0 0 0 4.12-1.73l-.54-.54a.72.72 0 0 1 0-1.01.7.7 0 0 1 1 0l.54.54a7.66 7.66 0 0 0 1.7-4.16h-.76a.7.7 0 0 1-.7-.72zm-1.97-1.8a4.53 4.53 0 0 1-4.1 6.32 4.5 4.5 0 0 1-4.45-4.52 4.5 4.5 0 0 1 6.24-4.14c.36.16.52.58.36.94a.7.7 0 0 1-.92.37 3.07 3.07 0 0 0-4.27 2.83c0 1.7 1.36 3.1 3.05 3.1a3.07 3.07 0 0 0 2.8-4.33.72.72 0 0 1 .36-.94.7.7 0 0 1 .93.37zm-2.64 1.8c0 .82-.65 1.48-1.45 1.48-.8 0-1.46-.66-1.46-1.48 0-.8.66-1.47 1.46-1.47.8 0 1.45.66 1.45 1.47zm-1.4 0a.05.05 0 0 0-.05-.04.05.05 0 0 0-.05.04c0 .03.02.05.05.05.02 0 .04-.02.04-.05zm30.71 6.85c0 1.65-1.33 2.99-2.96 2.99a2.98 2.98 0 0 1-2.96-3c0-1.65 1.33-2.99 2.96-2.99.4 0 .7.32.7.71a.7.7 0 0 1-.7.72c-.85 0-1.55.7-1.55 1.57 0 .86.7 1.56 1.55 1.56.86 0 1.55-.7 1.55-1.56 0-.4.32-.72.7-.72.4 0 .71.32.71.72zm4.51-6.85v3.8c0 1.01-.66 1.86-1.57 2.14a6 6 0 0 1-5.9 6.94 6 6 0 0 1-5.9-6.84h-6.12c-.8 0-1.46-.66-1.46-1.48v-.04h-2.3a.7.7 0 0 1-.1-.01 12.76 12.76 0 0 1-11.92 8.37A12.82 12.82 0 0 1 718 954.12a12.9 12.9 0 0 1 3-8.3V939.63h-1.54a.7.7 0 0 1-.7-.71c0-.4.3-.71.7-.71h3.05l.01-.2 2.83-13.6a.71.71 0 0 1-.59-.7c0-.4.32-.71.7-.71h22.55c.4 0 .7.32.7.71a.7.7 0 0 1-.7.72h-.04l3.62 16.12 1.6.18-2.82-12.6a3 3 0 0 1 .79-2.77l1.5-1.51a.7.7 0 0 1 1 0c.27.28.27.73 0 1l-1.5 1.52c-.38.38-.54.92-.42 1.45l2.94 13.08 5 .58a5.38 5.38 0 0 1 4.82 5.23v5.3c.87.3 1.5 1.13 1.5 2.11zm-2.91-6.13h-.8a.05.05 0 0 0-.05.05v.76c0 .03.03.05.05.05h.8zm-3.58-5.1l-8.53-.98H740.8a15.96 15.96 0 0 1 5.5 9.98h16.78v-1.62h-.8c-.8 0-1.46-.66-1.46-1.47v-.76c0-.81.66-1.47 1.46-1.47h.8a3.98 3.98 0 0 0-3.58-3.67zm-23.47-3.75v-11.67h-3.43c-1.15 0-2.13.87-2.28 2.02l-1.15 8.72h1.55c1.86 0 3.65.32 5.3.93zm1.4.59c.49.23.96.49 1.42.77a.7.7 0 0 1 .13-.01h11.14l-2.92-13.02h-9.77v12.26zm-13.52-1.52h3.85v-.15l1.16-8.76a3.74 3.74 0 0 1 3.68-3.26h14.28l-.32-1.4a.72.72 0 0 1-.01-.21h-19.77zm18.13 15.91a11.4 11.4 0 0 0-11.32-11.45 11.4 11.4 0 0 0-11.32 11.45 11.4 11.4 0 0 0 11.32 11.45 11.4 11.4 0 0 0 11.32-11.45zm3 3.1v-3.1c0-7.99-6.42-14.49-14.32-14.49h-8.32v4.75a12.59 12.59 0 0 1 8.32-3.13 12.82 12.82 0 0 1 12.36 15.96zm18.04 3.75c0-2.55-2.05-4.61-4.56-4.61a4.59 4.59 0 0 0-4.55 4.6c0 2.55 2.04 4.61 4.55 4.61a4.59 4.59 0 0 0 4.56-4.6zm1.5-6.85a.8.8 0 0 0-.8-.8h-17.35l.02.8v4.56c0 .03.02.05.05.05h6.48a5.97 5.97 0 0 1 5.54-3.8c2.5 0 4.63 1.56 5.52 3.76a.8.8 0 0 0 .54-.77z"/></defs><g><g transform="translate(-716 -921)"><use  xlink:href="#k7qpa"/></g></g></svg>