<svg xmlns="http://www.w3.org/2000/svg" xmlns:xlink="http://www.w3.org/1999/xlink" width="46" height="45" viewBox="0 0 46 45"><defs><path id="tvp1a" d="M619 934.63v12.9c0 .43-.34.77-.75.77h-3.02a.76.76 0 0 1-.76-.76v-2.28h-1.5v2.28c0 .42-.34.76-.76.76H592.6a.75.75 0 0 1-.4-.11l-3.58-2.17h-3.57a.76.76 0 0 1-.75-.76v-2.28h-1.51v2.28c0 .42-.34.76-.75.76h-3.02a.76.76 0 0 1-.76-.76v-12.9c0-.43.34-.77.76-.77h3.02c.41 0 .75.34.75.76v2.28h1.5v-2.28c0-.42.35-.76.76-.76h3.63l3.64-1.46a.75.75 0 0 1 .28-.06h3.77v-1.51h-.76a.76.76 0 0 1-.75-.76v-3.04c0-.42.34-.76.75-.76h12.07c.42 0 .76.34.76.76v3.04c0 .42-.34.76-.76.76h-.75v1.51h3.02c.2 0 .39.08.53.23l2.26 2.27c.15.15.22.34.22.54v3.8h1.51v-2.28c0-.42.34-.76.76-.76h3.02c.41 0 .75.34.75.76zm-37.72-1.52h-1.5v11.39h1.5zm3.02 3.04h-1.51v5.31h1.5zm3.77-3.04h-2.26v11.39h2.26zm3.77-1.16l-2.26.92v11.96l2.26 1.37zm4.53-4.91h10.56v-1.52h-10.56zm1.5 1.52v1.51h7.55v-1.51zm13.59 16.7h-18.1v1.52h18.1zm0-11.84l-1.82-1.83h-16.29v12.15h18.1zm3.01 5h-1.5v5.32h1.5zm3.02-3.03H616v11.39h1.5zm-22.63-2.28h1.5v1.52h-1.5zm3.02 0h1.5v1.52h-1.5zm3.01 0h1.51v1.52h-1.5zm14.85 25.07c-.3.68-.85 1.22-1.54 1.48l-11.65 4.47a12.97 12.97 0 0 1-9.6-.1l-5.63-2.36v.3c0 .41-.34.75-.76.75h-6.03a.76.76 0 0 1-.76-.76H576v-1.52h3.77v-7.59H576v-1.52h3.77c0-.42.34-.76.76-.76h6.03c.42 0 .76.34.76.76h1.9c2.74 0 5.44.65 7.89 1.87.53.27 1.11.4 1.7.41h5.86a2.65 2.65 0 0 1 2.61 2.94l4.9-2.1c.67-.28 1.43-.29 2.1 0a2.83 2.83 0 0 1 1.46 3.73zm-29.93-6.09h-4.53v9.11h4.53zm28.57 4.47a1.25 1.25 0 0 0-.68-.7c-.3-.13-.64-.13-.94 0l-6.3 2.69c-.56.23-1.15.36-1.75.37h-9.1v-1.51h9.01l.3-.03a1.14 1.14 0 0 0-.25-2.25h-5.86c-.82 0-1.64-.2-2.38-.57a16.11 16.11 0 0 0-7.2-1.7h-1.91v7.17l6.2 2.6a11.47 11.47 0 0 0 8.49.09l11.65-4.48c.31-.12.57-.36.7-.67.14-.32.15-.68.02-1z"/></defs><g><g transform="translate(-574 -922)"><use  xlink:href="#tvp1a"/></g></g></svg>