<svg xmlns="http://www.w3.org/2000/svg" xmlns:xlink="http://www.w3.org/1999/xlink" width="53" height="43" viewBox="0 0 53 43"><defs><path id="ppexa" d="M1181.29 949.37a5.67 5.67 0 0 1 5.65 5.68 5.67 5.67 0 0 1-5.65 5.7 5.67 5.67 0 0 1-5.64-5.7 5.67 5.67 0 0 1 5.64-5.68zm0 9.75a4.05 4.05 0 0 0 4.03-4.07c0-2.24-1.8-4.06-4.03-4.06a4.05 4.05 0 0 0-4.03 4.06c0 2.25 1.8 4.06 4.03 4.07zm-18.55-4.07a5.67 5.67 0 0 1-5.64 5.7 5.67 5.67 0 0 1-5.65-5.7 5.67 5.67 0 0 1 5.65-5.68 5.67 5.67 0 0 1 5.64 5.68zm-5.64-4.06a4.05 4.05 0 0 0-4.04 4.06c0 2.25 1.81 4.06 4.04 4.07a4.05 4.05 0 0 0 4.03-4.07c0-2.24-1.8-4.06-4.03-4.06zm-11.3-22.74h29.47l1.25-2.77a.8.8 0 0 1 .74-.48h4.84v1.62h-4.32l-5.13 11.38h6.22v-8.94a.8.8 0 0 1 .8-.81h8.07a4.05 4.05 0 0 1 4.03 4.06v5.77a4.06 4.06 0 0 1 3.23 3.98v6.5c0 .21-.09.42-.24.57l-4.69 4.73a8.9 8.9 0 0 1-8.83 10.09 8.9 8.9 0 0 1-8.78-8.08h-6.53a8.89 8.89 0 0 1-9.63 8.1 8.92 8.92 0 0 1-8.04-9.71 8.93 8.93 0 0 1 5.23-7.36l3.65-4.9-11.5-2.4a.81.81 0 0 1-.64-.8v-9.74a.8.8 0 0 1 .8-.81zm33.07 11.37h-6.96l-.73 1.63h7.7zm0 3.25h-8.42l-.52 1.15a.8.8 0 0 1-.9.46l-6.8-1.42-2.32 3.53c.86.29 1.67.71 2.4 1.25l1.47-1.48a.8.8 0 0 1 .57-.24h9.68a.8.8 0 0 1 .57.24l1.48 1.48a8.82 8.82 0 0 1 2.8-1.37zm11.3-9.75h-6.46V938h6.45zm1.6 16.72l1.62-1.62v-5.35h-1.62zm-1.6 1.63v-9.41a.8.8 0 0 1 .8-.81h2.27a2.42 2.42 0 0 0-2.27-1.63h-8.07a.8.8 0 0 1-.8-.81v-6.5a.8.8 0 0 1 .8-.81h7.11a2.42 2.42 0 0 0-2.27-1.63h-7.26v16.3a8.88 8.88 0 0 1 9.14 5.85zm-8.88 10.9c4 0 7.26-3.28 7.26-7.32a7.28 7.28 0 0 0-7.26-7.3c-4 0-7.26 3.27-7.26 7.3a7.3 7.3 0 0 0 7.26 7.32zm-11.29-8.13h2.46c.18-2 1.03-3.87 2.4-5.32l-1.16-1.18h-3.7zm-1.61 0v-6.5h-3.7l-1.16 1.18a8.93 8.93 0 0 1 2.4 5.32zm-18.55.81a7.31 7.31 0 0 0 7.26 7.37 7.31 7.31 0 0 0 7.3-7.3 7.31 7.31 0 0 0-9.88-6.89 7.31 7.31 0 0 0-4.68 6.82zm6.2-8.86c.72-.1 1.46-.1 2.19.01l2.3-3.5-1.64-.34zm-9.43-8.04l22.12 4.6 4.34-9.63h-26.46zm0-6.65h27.2l.73-1.63h-27.93zm38.71 11.37h-3.22v-1.62h3.22z"/></defs><g><g transform="translate(-1143 -923)"><use  xlink:href="#ppexa"/></g></g></svg>