<svg width="195" height="63" viewBox="0 0 195 63" fill="none" xmlns="http://www.w3.org/2000/svg">
<path d="M13.5715 10.7948C16.0508 10.7948 18.2725 11.346 20.2367 12.448C22.2003 13.5499 23.7384 15.0896 24.8487 17.067C25.9596 19.0438 26.5153 21.3297 26.5153 23.9227C26.5153 26.5158 25.9596 28.8092 24.8487 30.8024C23.7378 32.7962 22.2003 34.3441 20.2367 35.4461C18.2725 36.5486 16.0508 37.0993 13.5715 37.0993C11.6719 37.0993 9.9332 36.7265 8.35556 35.9809C6.77792 35.2354 5.47349 34.1498 4.44343 32.7231V36.8073H0V0.729169H4.63701V14.9275C5.66706 13.5657 6.95522 12.5369 8.50089 11.8399C10.0466 11.1429 11.737 10.7948 13.5721 10.7948H13.5715ZM13.185 33.0157C14.8271 33.0157 16.3001 32.6347 17.604 31.8728C18.9084 31.1114 19.9385 30.0417 20.6953 28.6635C21.4522 27.2859 21.8306 25.7059 21.8306 23.9233C21.8306 22.1402 21.4522 20.5601 20.6953 19.1825C19.9391 17.805 18.9084 16.7434 17.604 15.9978C16.3001 15.2523 14.8271 14.8795 13.185 14.8795C11.5748 14.8795 10.1099 15.2523 8.78979 15.9978C7.46967 16.7434 6.43961 17.805 5.69845 19.1825C4.95788 20.5601 4.58759 22.1408 4.58759 23.9233C4.58759 25.7064 4.95788 27.2865 5.69845 28.6635C6.43903 30.0411 7.46967 31.1108 8.78979 31.8728C10.1099 32.6347 11.5748 33.0157 13.185 33.0157ZM53.6066 24.069C53.6066 24.4254 53.5741 24.8959 53.5101 25.4788H32.7421C33.0316 27.7482 34.0216 29.5712 35.7126 30.9487C37.403 32.3263 39.5038 33.0151 42.0156 33.0151C45.0743 33.0151 47.5373 31.9775 49.405 29.903L51.965 32.9174C50.8059 34.2786 49.3655 35.3161 47.6425 36.0295C45.9201 36.7429 43.996 37.0993 41.8708 37.0993C39.166 37.0993 36.7676 36.5398 34.6744 35.4221C32.5811 34.3037 30.9634 32.7395 29.8205 30.7299C28.6777 28.7203 28.1057 26.4508 28.1057 23.9227C28.1057 21.4268 28.6614 19.1738 29.7717 17.1642C30.8826 15.154 32.4119 13.5903 34.3599 12.472C36.3078 11.3536 38.5057 10.7948 40.9529 10.7948C43.4002 10.7948 45.5818 11.3542 47.4972 12.472C49.4131 13.5903 50.91 15.1546 51.9889 17.1642C53.0678 19.1738 53.6072 21.4754 53.6072 24.0684L53.6066 24.069ZM40.9524 14.7332C38.7307 14.7332 36.8711 15.4138 35.3737 16.7756C33.8762 18.1374 32.9991 19.9199 32.7415 22.1244H49.1626C48.9051 19.9527 48.0279 18.1777 46.5305 16.8002C45.0331 15.4226 43.1741 14.7338 40.9518 14.7338L40.9524 14.7332ZM57.5629 11.0376H62.1999V36.8078H57.5629V11.0376ZM59.8811 6.07797C58.9795 6.07797 58.2308 5.78595 57.635 5.20309C57.0392 4.61963 56.7416 3.90626 56.7416 3.06356C56.7416 2.22087 57.0392 1.4993 57.635 0.899465C58.2308 0.299627 58.9795 0 59.8811 0C60.7827 0 61.5314 0.283826 62.1273 0.850893C62.7231 1.41796 63.0207 2.12314 63.0207 2.96583C63.0207 3.84072 62.7225 4.57867 62.1273 5.17792C61.5314 5.77776 60.7827 6.07739 59.8811 6.07739V6.07797ZM75.9121 37.0993C73.8195 37.0993 71.807 36.8154 69.8754 36.2484C67.9431 35.6813 66.43 34.9603 65.3354 34.0849L67.2671 30.3893C68.3942 31.1998 69.7626 31.8482 71.3728 32.3339C72.9824 32.8202 74.6089 33.0631 76.251 33.0631C80.3079 33.0631 82.3366 31.8962 82.3366 29.5624C82.3366 28.7846 82.0629 28.1684 81.5153 27.7149C80.9677 27.2608 80.2835 26.9289 79.4627 26.7183C78.6413 26.5076 77.4747 26.2723 75.961 26.0131C73.9003 25.6889 72.218 25.3161 70.9136 24.8948C69.6097 24.4734 68.4907 23.76 67.5572 22.7552C66.623 21.7504 66.1568 20.3401 66.1568 18.5248C66.1568 16.191 67.1229 14.3189 69.0546 12.9085C70.9862 11.4988 73.5788 10.7936 76.8306 10.7936C78.5373 10.7936 80.2434 11.0043 81.9501 11.4256C83.6568 11.847 85.0571 12.414 86.1523 13.1274L84.1718 16.8224C82.0791 15.4612 79.6156 14.78 76.7818 14.78C74.8181 14.78 73.3207 15.1042 72.2901 15.7526C71.26 16.401 70.745 17.2601 70.745 18.3299C70.745 19.1726 71.0345 19.8374 71.614 20.3237C72.1936 20.81 72.9097 21.1664 73.7637 21.3935C74.617 21.6205 75.8162 21.8798 77.3619 22.1712C79.4226 22.5276 81.0892 22.9086 82.3605 23.3141C83.6323 23.7191 84.7194 24.4079 85.621 25.3805C86.522 26.3531 86.9731 27.7143 86.9731 29.4646C86.9731 31.7985 85.9831 33.6542 84.0026 35.0323C82.0222 36.4099 79.3261 37.0987 75.9127 37.0987L75.9121 37.0993ZM113.435 24.0684C113.435 24.4248 113.403 24.8953 113.339 25.4782H92.571C92.8604 27.7476 93.8504 29.5706 95.5414 30.9482C97.2318 32.3257 99.3326 33.0145 101.844 33.0145C104.903 33.0145 107.366 31.9769 109.234 29.9024L111.794 32.9168C110.635 34.278 109.194 35.3156 107.471 36.0289C105.749 36.7423 103.825 37.0987 101.7 37.0987C98.9949 37.0987 96.5964 36.5392 94.5032 35.4215C92.4099 34.3032 90.7922 32.7389 89.6494 30.7293C88.5065 28.7197 87.9345 26.4502 87.9345 23.9221C87.9345 21.4262 88.4902 19.1732 89.6005 17.1636C90.7114 15.1534 92.2408 13.5897 94.1887 12.4714C96.1366 11.353 98.3345 10.7942 100.782 10.7942C103.229 10.7942 105.411 11.3536 107.326 12.4714C109.242 13.5897 110.739 15.154 111.818 17.1636C112.897 19.1732 113.436 21.4748 113.436 24.0679L113.435 24.0684ZM100.781 14.7326C98.5595 14.7326 96.6999 15.4132 95.2025 16.775C93.7051 18.1368 92.8279 19.9193 92.5704 22.1238H108.991C108.734 19.9521 107.857 18.1772 106.359 16.7996C104.862 15.422 103.003 14.7332 100.781 14.7332L100.781 14.7326ZM127.341 24.7976L122.028 29.7573V36.8078H117.391V0.729755H122.028V23.8742L135.986 11.0376H141.589L130.819 21.6861L142.651 36.8078H136.952L127.341 24.7982V24.7976ZM166.749 24.0684C166.749 24.4248 166.716 24.8953 166.652 25.4782H145.884C146.173 27.7476 147.163 29.5706 148.854 30.9482C150.545 32.3257 152.646 33.0145 155.157 33.0145C158.216 33.0145 160.679 31.9769 162.547 29.9024L165.107 32.9168C163.948 34.278 162.507 35.3156 160.784 36.0289C159.062 36.7423 157.138 37.0987 155.013 37.0987C152.308 37.0987 149.909 36.5392 147.816 35.4215C145.723 34.3032 144.105 32.7389 142.962 30.7293C141.82 28.7197 141.248 26.4502 141.248 23.9221C141.248 21.4262 141.803 19.1732 142.914 17.1636C144.024 15.1534 145.554 13.5897 147.502 12.4714C149.45 11.353 151.648 10.7942 154.095 10.7942C156.542 10.7942 158.724 11.3536 160.639 12.4714C162.555 13.5897 164.052 15.154 165.131 17.1636C166.21 19.1732 166.749 21.4748 166.749 24.0679L166.749 24.0684ZM154.094 14.7326C151.873 14.7326 150.013 15.4132 148.516 16.775C147.018 18.1368 146.141 19.9193 145.883 22.1238H162.304C162.047 19.9521 161.17 18.1772 159.672 16.7996C158.175 15.422 156.316 14.7332 154.094 14.7332L154.094 14.7326ZM184.373 10.7942C187.625 10.7942 190.21 11.7422 192.125 13.6389C194.041 15.5355 194.999 18.3147 194.999 21.9781V36.8078H190.362V22.513C190.362 20.017 189.766 18.1368 188.575 16.8727C187.384 15.6087 185.677 14.9761 183.456 14.9761C180.944 14.9761 178.964 15.7134 177.515 17.1882C176.066 18.6635 175.341 20.7784 175.341 23.5336V36.8078H170.704V11.0376H175.148V14.9275C176.082 13.5985 177.345 12.5773 178.939 11.8639C180.533 11.1506 182.344 10.7942 184.372 10.7942H184.373Z" fill="black"/>
<path d="M118.154 63.0005C117.007 63.0005 115.915 62.8267 114.878 62.4779C113.84 62.1297 113.03 61.6896 112.447 61.1583L113.076 60.0587C113.658 60.5538 114.409 60.9657 115.328 61.2958C116.248 61.6259 117.208 61.7909 118.209 61.7909C119.647 61.7909 120.708 61.5527 121.39 61.0758C122.073 60.5994 122.414 59.9393 122.414 59.0966C122.414 58.4915 122.227 58.0151 121.854 57.6669C121.481 57.3187 121.021 57.0624 120.475 56.8974C119.929 56.7323 119.173 56.5585 118.208 56.3748C117.08 56.1729 116.169 55.9528 115.477 55.7147C114.786 55.4765 114.194 55.0914 113.703 54.5601C113.211 54.0287 112.966 53.2954 112.966 52.3608C112.966 51.2244 113.435 50.2851 114.372 49.5431C115.309 48.801 116.643 48.4294 118.372 48.4294C119.283 48.4294 120.184 48.5582 121.076 48.8145C121.968 49.0708 122.696 49.4102 123.26 49.8316L122.632 50.9312C122.05 50.5092 121.385 50.1891 120.639 49.9691C119.892 49.7491 119.128 49.639 118.345 49.639C117.016 49.639 116.015 49.8866 115.341 50.3811C114.668 50.8762 114.331 51.5269 114.331 52.3333C114.331 52.9747 114.522 53.4745 114.904 53.8315C115.287 54.189 115.755 54.4547 116.31 54.6285C116.866 54.8029 117.644 54.9908 118.646 55.1921C119.756 55.394 120.653 55.6087 121.335 55.8382C122.018 56.0676 122.596 56.4386 123.069 56.9518C123.542 57.465 123.78 58.1708 123.78 59.0691C123.78 60.26 123.288 61.2133 122.305 61.9278C121.322 62.6429 119.938 62.9999 118.154 62.9999L118.154 63.0005ZM134.676 61.9834C134.33 62.3135 133.898 62.5651 133.378 62.7395C132.859 62.9139 132.318 63.0005 131.754 63.0005C130.516 63.0005 129.561 62.657 128.887 61.97C128.213 61.2823 127.877 60.3249 127.877 59.0972V49.7221H125.255V48.54H127.877V45.4056H129.242V48.54H133.776V49.7221H129.242V58.9597C129.242 59.8942 129.465 60.6047 129.911 61.0904C130.357 61.5761 131.017 61.819 131.891 61.819C132.783 61.819 133.52 61.5533 134.103 61.0219L134.676 61.984V61.9834ZM150.952 48.54V62.8905H149.641V59.8117C149.168 60.8194 148.467 61.603 147.538 62.1625C146.609 62.7214 145.517 63.0005 144.261 63.0005C142.404 63.0005 140.948 62.4779 139.891 61.4333C138.836 60.3887 138.308 58.8859 138.308 56.9249V48.54H139.673V56.8149C139.673 58.4277 140.083 59.6555 140.902 60.4988C141.722 61.342 142.877 61.7634 144.37 61.7634C145.972 61.7634 147.242 61.2595 148.179 60.2512C149.117 59.2435 149.586 57.887 149.586 56.1823V48.54H150.951H150.952ZM169.412 42.4913V62.8905H168.074V59.5086C167.509 60.6269 166.718 61.4878 165.698 62.0929C164.678 62.6974 163.522 62.9999 162.23 62.9999C160.901 62.9999 159.7 62.6886 158.625 62.0654C157.551 61.4421 156.709 60.5807 156.1 59.4811C155.49 58.3815 155.185 57.1262 155.185 55.7147C155.185 54.3037 155.49 53.0432 156.1 51.9348C156.709 50.8258 157.551 49.9644 158.625 49.3505C159.7 48.7366 160.901 48.4294 162.23 48.4294C163.504 48.4294 164.646 48.732 165.657 49.3365C166.668 49.941 167.464 50.7843 168.046 51.8658V42.4907H169.412V42.4913ZM162.312 61.7628C163.404 61.7628 164.383 61.5065 165.248 60.9932C166.112 60.48 166.796 59.7655 167.296 58.849C167.796 57.9326 168.047 56.888 168.047 55.7147C168.047 54.5419 167.797 53.4967 167.296 52.5809C166.796 51.6644 166.112 50.9493 165.248 50.4361C164.383 49.9229 163.404 49.6665 162.312 49.6665C161.22 49.6665 160.241 49.9229 159.376 50.4361C158.511 50.9493 157.829 51.6639 157.328 52.5809C156.828 53.4973 156.577 54.5419 156.577 55.7147C156.577 56.888 156.828 57.9326 157.328 58.849C157.829 59.7655 158.511 60.48 159.376 60.9932C160.241 61.5065 161.22 61.7628 162.312 61.7628ZM175.174 48.5394H176.54V62.8899H175.174V48.5394ZM175.857 45.0481C175.548 45.0481 175.284 44.9427 175.065 44.7321C174.846 44.5214 174.737 44.2598 174.737 43.9485C174.737 43.6371 174.846 43.3715 175.065 43.1514C175.284 42.9314 175.548 42.8214 175.857 42.8214C176.167 42.8214 176.43 42.9267 176.649 43.1374C176.867 43.3481 176.977 43.6096 176.977 43.921C176.977 44.2323 176.868 44.498 176.649 44.718C176.43 44.9381 176.167 45.0481 175.857 45.0481ZM187.873 62.9999C186.526 62.9999 185.31 62.6886 184.227 62.0654C183.144 61.4421 182.293 60.576 181.674 59.4676C181.055 58.3586 180.745 57.1081 180.745 55.7147C180.745 54.3219 181.055 53.0707 181.674 51.9623C182.293 50.8533 183.144 49.9872 184.227 49.3646C185.31 48.7413 186.526 48.43 187.873 48.43C189.22 48.43 190.435 48.7413 191.518 49.3646C192.602 49.9878 193.453 50.8533 194.072 51.9623C194.691 53.0713 195 54.3219 195 55.7147C195 57.1075 194.691 58.3586 194.072 59.4676C193.453 60.5766 192.602 61.4421 191.518 62.0654C190.435 62.6886 189.22 62.9999 187.873 62.9999ZM187.873 61.7628C188.965 61.7628 189.944 61.5065 190.808 60.9932C191.673 60.48 192.356 59.7655 192.857 58.849C193.357 57.9326 193.608 56.888 193.608 55.7147C193.608 54.5419 193.358 53.4967 192.857 52.5809C192.356 51.6644 191.673 50.9493 190.808 50.4361C189.944 49.9229 188.965 49.6665 187.873 49.6665C186.78 49.6665 185.802 49.9229 184.937 50.4361C184.072 50.9493 183.39 51.6639 182.889 52.5809C182.389 53.4973 182.138 54.5419 182.138 55.7147C182.138 56.888 182.389 57.9326 182.889 58.849C183.39 59.7655 184.072 60.48 184.937 60.9932C185.802 61.5065 186.78 61.7628 187.873 61.7628Z" fill="black"/>
</svg>
